<svg xmlns="http://www.w3.org/2000/svg" width="538" height="419" viewBox="0 0 538 419"><g fill="none" fill-rule="evenodd"><g fill="#CCCDD2" fill-rule="nonzero"><path d="M125.919 58.96c.081 1.24.121 2.48.201 3.68 0 .24.16.56.44.56 33.68 4.64 67.64.72 101.44.8 9.56 0 19.08.36 28.6 1.28.24.04.52-.2.56-.44.32-1.64.68-3.28 1-4.92.16-.76-1-1.08-1.16-.32-.32 1.64-.68 3.28-1 4.92.2-.16.4-.28.56-.44-33.48-3.28-67.08.84-100.64.12-9.72-.2-19.44-.84-29.08-2.16.16.2.28.4.44.56-.08-1.24-.12-2.48-.2-3.68 0-.72-1.2-.72-1.161.04z" transform="matrix(-1 0 0 1 538 0) translate(254 6)"></path><path d="M126.92 59.56h130.36c.76 0 .76-1.2 0-1.2H126.92c-.76 0-.76 1.2 0 1.2z" transform="matrix(-1 0 0 1 538 0) translate(254 6)"></path><path d="M134.2 58.6c1-14.36 1.84-28.76 3.08-43.08.16-1.88.36-3.72.68-5.56.12-.68.16-2.08.56-2.64.52-.72 1.64-.72 2.44-.84 1.84-.32 4.92-1.44 6.2.44.36.56.44 1.72.56 2.4.24 1.2.4 2.4.52 3.6.64 7.04-.28 14.2-.8 21.24l-1.8 24.48c-.04.76 1.16.76 1.2 0 .88-11.68 1.84-23.32 2.56-35 .32-5.36.48-10.84-.84-16.12-.36-1.48-.92-2.72-2.6-2.88-2.56-.2-5.52.68-8 1.2-.2.04-.36.24-.4.4-2.12 8.28-2.04 17.2-2.64 25.68-.64 8.88-1.24 17.8-1.88 26.68-.08.76 1.12.76 1.16 0z" transform="matrix(-1 0 0 1 538 0) translate(254 6)"></path><path d="M149.08 22.48c4.88 12.28 10.04 24.44 15.44 36.48.32.72 1.36.08 1.04-.6-5.36-11.96-10.48-24.04-15.32-36.2-.28-.72-1.44-.4-1.16.32zM150.12 16.04c1-2.84 4.08-4.4 6.96-3.6.76.2 1.08-.96.32-1.16-3.52-1-7.24 1-8.44 4.44-.24.76.92 1.04 1.16.32z" transform="matrix(-1 0 0 1 538 0) translate(254 6)"></path><path d="M157.08 12.68c7.92 15.36 15.8 30.76 23.72 46.12.36.68 1.4.08 1.04-.6-7.92-15.36-15.8-30.76-23.72-46.12-.36-.72-1.4-.12-1.04.6z" transform="matrix(-1 0 0 1 538 0) translate(254 6)"></path><path d="M177.92 2.36c1.28 18.6 2.56 37.2 3.8 55.8.04.76 1.24.76 1.2 0-1.28-18.6-2.56-37.2-3.8-55.8-.04-.76-1.24-.76-1.2 0z" transform="matrix(-1 0 0 1 538 0) translate(254 6)"></path><path d="M178.96 3c2.04-1.84 4.8-1.84 7.36-1.4 1.04.16 2.16.36 3.16.72 1.84.68 1.56 2.36 1.64 4 .24 5.72.44 11.44.68 17.16.44 11.56.92 23.16 1.36 34.72.04.76 1.24.76 1.2 0-.56-13.84-1.08-27.68-1.64-41.48-.12-3.44-.28-6.92-.4-10.36-.08-1.76.16-3.92-1.68-4.88-1.92-1-4.88-1.36-7.04-1.32-2.08.04-3.92.6-5.44 2-.6.48.24 1.36.8.84zM158.04 12c3.8.24 7.52 1.36 11.16 2.4 3.36.96 6.64 2.16 9.48 4.24.64.44 1.24-.6.6-1.04-2.96-2.12-6.32-3.36-9.8-4.36-3.76-1.08-7.56-2.16-11.48-2.44-.76-.08-.76 1.12.04 1.2z" transform="matrix(-1 0 0 1 538 0) translate(254 6)"></path><path d="M192.52 9.88c1.76-.44 3.72-.88 5.56-.52 2.72.56 3.28 2.96 3.4 5.4.2 4.92.28 9.8.4 14.72.24 9.68.36 19.36.4 29.04 0 .76 1.2.76 1.2 0-.04-11.56-.2-23.08-.52-34.6l-.24-8.36c-.08-1.84-.04-3.88-1.16-5.44-2.08-2.92-6.36-2.2-9.32-1.44-.8.24-.48 1.4.28 1.2z" transform="matrix(-1 0 0 1 538 0) translate(254 6)"></path><path d="M201.28 3.56v10.76c0 .76 1.2.76 1.2 0V3.56c0-.76-1.2-.76-1.2 0z" transform="matrix(-1 0 0 1 538 0) translate(254 6)"></path><path d="M203.04 4c.32.12.68.24 1 .36.04.28.08.56.12.88.08.64.08 1.32.16 2 .08 1.04.16 2.12.24 3.16.16 2.24.28 4.52.4 6.76.28 4.64.48 9.28.64 13.92.36 9.16.48 18.32.48 27.48 0 .76 1.2.76 1.2 0 0-11.4-.24-22.84-.76-34.24-.28-5.56-.6-11.12-1-16.68-.08-1.36.16-3.84-1.08-4.8-.84-.64-2-.4-2.44.56-.28.72.72 1.32 1.04.6zM144.08 64.84c1.24 2.08 2.44 5.2 4.44 6.68 1.96 1.48 4.36.16 6.52.92.72.24 1.04-.92.32-1.16-1.92-.68-4.16.4-5.88-.68-1.96-1.2-3.2-4.44-4.36-6.4-.4-.64-1.44-.04-1.04.64z" transform="matrix(-1 0 0 1 538 0) translate(254 6)"></path><path d="M156.64 65.36c-.16 2.08-.8 3.96-1.84 5.72-.4.68.64 1.28 1.04.6 1.2-1.96 1.84-4.08 2-6.32.08-.76-1.12-.76-1.2 0z" transform="matrix(-1 0 0 1 538 0) translate(254 6)"></path><path d="M153.24 66.36c.36 1.84.72 3.68 1.12 5.52.16.76 1.32.44 1.16-.32-.36-1.84-.72-3.68-1.12-5.52-.16-.76-1.32-.44-1.16.32z" transform="matrix(-1 0 0 1 538 0) translate(254 6)"></path><path d="M154.68 66.32c.08 0 .16.04.24.08.12.24.12.48.08.72-.04.28-.16.56-.24.84-.16.56-.2 1.08-.04 1.64.24.76 1.28.44 1.16-.32-.2-1.08-.04-2.16.4-3.16-.4-.04-.8-.12-1.16-.16-.12 1.24-.2 2.52-.32 3.76-.08.76 1.12.76 1.2 0 .12-1.24.2-2.52.32-3.76.08-.72-.96-.72-1.16-.16-.52 1.24-.6 2.52-.4 3.8.4-.12.76-.2 1.16-.32-.36-1.2 1.04-2.68-.16-3.76-.72-.64-1.88-.4-2.16.52-.32.72.84 1.04 1.08.28zM217.36 57.56c-.36-1.48-.52-2.92-.4-4.44l-.6.6c7.08-.36 14.16-.8 21.24-.96 3.56-.08 7.12-.08 10.68 0 .8 0 1.6.04 2.36.04.8.04 2.44-.24 3.16.12 1.6.76.92 3.84.92 5.24 0 .76 1.2.76 1.2 0 0-1.88.96-5.88-1.6-6.4-1.76-.36-3.84-.16-5.64-.2-2.24-.04-4.48-.08-6.72-.04-8.52.04-17.04.56-25.6 1-.32 0-.6.28-.6.6-.08 1.64.04 3.2.48 4.76.12.76 1.28.44 1.12-.32z" transform="matrix(-1 0 0 1 538 0) translate(254 6)"></path><path d="M221.8 45.52c.48 2.2.84 4.4 1 6.64.04.76 1.24.76 1.2 0-.16-2.36-.52-4.68-1.04-6.96-.16-.72-1.32-.4-1.16.32z" transform="matrix(-1 0 0 1 538 0) translate(254 6)"></path><path d="M222.6 46.28c4.84-.4 9.68-.84 14.52-.64 4.56.2 9.16 1.68 13.72 1.2l-.6-.6c-.16 2.12.08 4.12.76 6.16.24.72 1.4.4 1.16-.32-.64-1.92-.88-3.8-.72-5.84.04-.32-.28-.64-.6-.6-4.56.44-9.16-1.04-13.72-1.2-4.84-.2-9.72.24-14.52.64-.76.04-.76 1.24 0 1.2zM181.88 170.4v5c0 .76 1.2.76 1.2 0v-5c0-.76-1.2-.76-1.2 0z" transform="matrix(-1 0 0 1 538 0) translate(254 6)"></path><path d="M182.48 170h93.36c.76 0 .76-1.2 0-1.2h-93.36c-.8 0-.8 1.2 0 1.2zM183.44 175.52h91.88c.76 0 .76-1.2 0-1.2h-91.88c-.76 0-.76 1.2 0 1.2z" transform="matrix(-1 0 0 1 538 0) translate(254 6)"></path><path d="M275.24 170.4v3.48c0 .76 1.2.76 1.2 0v-3.48c0-.76-1.2-.76-1.2 0zM191.12 156.92c1.04 4.12 2 8.28 2.8 12.44.16.76 1.32.44 1.16-.32-.8-4.16-1.72-8.32-2.8-12.44-.2-.76-1.36-.44-1.16.32zM211.92 156.56c-.96 4.12-1.76 8.24-2.36 12.4-.12.76 1.04 1.08 1.16.32.6-4.16 1.4-8.32 2.36-12.4.16-.76-1-1.08-1.16-.32z" transform="matrix(-1 0 0 1 538 0) translate(254 6)"></path><path d="M187.84 154.68c.08 2.08 3.2 1.92 4.72 2 3.44.16 6.92-.36 10.36-.56 1.72-.12 3.44-.16 5.16 0 1.4.12 2.92.6 4.28.32 1.52-.32 2.48-1.76 1.6-3.16-.4-.64-1.44-.04-1.04.6 1.12 1.88-2.68 1.28-3.04 1.24-.84-.12-1.72-.2-2.56-.24-1.96-.12-3.96 0-5.92.16-1.28.08-12.32 1.4-12.36-.36 0-.8-1.2-.8-1.2 0z" transform="matrix(-1 0 0 1 538 0) translate(254 6)"></path><path d="M189.24 154.52c-.72-2.24 5.48-2 6.52-2.04l5.56-.24c1-.04 11.4-.32 11.12.44-.24.72.92 1.04 1.16.32 1.2-3.56-11.8-2-13.48-1.92-3.12.12-6.6-.16-9.64.44-1.6.32-2.96 1.52-2.4 3.28.24.76 1.4.44 1.16-.28z" transform="matrix(-1 0 0 1 538 0) translate(254 6)"></path><path d="M194.56 151.2c-1.84-.84-3.48-2.04-4.76-3.56-.52-.64-4.2-5.96-2.04-6.28.36-.04.56-.6.36-.88-1.16-1.68-1.64-3.84-2.24-5.76-.68-2.08-1.32-4.16-2-6.2-.12-.44-.32-.84-.4-1.28-.2-.84-.32-.84.68-.92 1.08-.08 1.64.76 2.36 1.48 1.36 1.36 2.56 2.84 3.64 4.4 4.04 5.84 6.28 12.72 7.96 19.56.2.76 1.36.44 1.16-.32-2.16-8.72-5.32-17.68-11.72-24.28-.88-.92-2.56-3.04-4.04-2.8-1.12.2-1.44 1.4-1.36 2.4.16 2.24 1.36 4.68 2.08 6.84.8 2.48 1.32 5.36 2.84 7.52.12-.28.24-.6.36-.88-2.64.4-1.12 4.08-.4 5.52 1.52 2.92 3.96 5.16 6.92 6.56.68.24 1.28-.8.6-1.12z" transform="matrix(-1 0 0 1 538 0) translate(254 6)"></path><path d="M195.92 140.24c-.12-5.08-.24-10.36 1.48-15.2.84-2.36 2.12-4.48 3.6-6.48.36-.52.76-1.36 1.32-1.68.4-.64 1-.72 1.76-.2.96-.24 1.44 0 1.44.72.48 1.08.32 2.92.32 4.04 0 2.68-.64 5.16-1.28 7.72-.24.88-.44 1.8-.36 2.68.08 1.04.64 1.84.92 2.8.8 2.72-.6 5.52-1.56 8-.96 2.6-1.96 5.2-2.92 7.84-.28.72.88 1.04 1.16.32 1.28-3.44 2.64-6.84 3.84-10.32.84-2.44 1.24-4.56.28-6.96-1.28-3.24.76-6.88 1.04-10.2.16-2.16.52-5.84-.88-7.76-3.04-4.2-7.88 4.76-8.84 6.76-2.72 5.6-2.68 11.88-2.52 17.96.04.76 1.24.76 1.2-.04zM185.84 130.4c3.96 5.56 6.32 12.24 9.08 18.44.32.72 1.36.08 1.04-.6-2.72-6.24-5.12-12.88-9.08-18.44-.44-.64-1.48-.04-1.04.6z" transform="matrix(-1 0 0 1 538 0) translate(254 6)"></path><path d="M196.88 127.56c.16 2.12.88 4 2.2 5.64.48.6 1.32-.24.84-.84-1.08-1.4-1.72-3.04-1.84-4.8-.04-.76-1.24-.76-1.2 0zM202.32 127.28c.96-1.44 1.96-2.88 2.92-4.32.44-.64-.6-1.24-1.04-.6-.96 1.44-1.96 2.88-2.92 4.32-.4.64.64 1.24 1.04.6zM214.24 126.48c-1 1.6-2.44 2.84-3.76 4.12-1.44 1.36-2.88 2.76-4.32 4.12-.56.52.28 1.4.84.84 2.76-2.64 6.24-5.2 8.28-8.48.4-.64-.64-1.24-1.04-.6z" transform="matrix(-1 0 0 1 538 0) translate(254 6)"></path><path d="M213.72 128.08c.08 2.12 3.6 6.04.88 7.32-.36.2-.36.68-.12.96.92 1.12.32 2.8.2 4.12-.12 1.48 0 2.96-.4 4.4-.72 2.76-3.28 4.4-5.56 5.84-.64.4-.04 1.44.6 1.04 2.76-1.76 5.6-3.76 6.24-7.2.32-1.84.32-3.76.48-5.6.16-1.32.12-2.36-.76-3.4l-.12.96c3.8-1.8-.2-5.88-.28-8.36 0-.84-1.2-.84-1.16-.08z" transform="matrix(-1 0 0 1 538 0) translate(254 6)"></path><path d="M211.8 133.96c-2.76 4.44-5.12 9.08-7.08 13.96-.28.72.88 1.04 1.16.32 1.92-4.76 4.24-9.32 6.96-13.68.4-.68-.64-1.28-1.04-.6zM193.24 165.12c1.6 2.16 3.8 3.64 6.44 4.2.76.16 1.08-1 .32-1.16-2.32-.48-4.32-1.72-5.72-3.64-.44-.6-1.48 0-1.04.6zM192.56 160.2c4.12 3.16 8.48 7.68 13.76 8.76.76.16 1.08-1 .32-1.16-5.12-1.04-9.44-5.56-13.48-8.64-.6-.48-1.2.56-.6 1.04zM195.72 157.16c2.48 2.04 4.88 4.12 7.4 6.08 1.08.84 2.2 1.64 3.52 2.16 1.24.52 2.56.76 3.68 1.56.64.44 1.24-.6.6-1.04-.88-.6-1.76-.88-2.72-1.24-1.64-.56-2.96-1.32-4.32-2.4-2.48-1.92-4.88-3.96-7.28-5.96-.64-.48-1.48.36-.88.84zM202.28 156.6c2.32 2.4 5.12 4.16 8.32 5.2.72.24 1.04-.92.32-1.16-3-1-5.6-2.64-7.8-4.92-.52-.52-1.4.32-.84.88zM231.72 168.24c-.24-.64-.6-1.48-.56-2.16.16-1.76 1.36-1.92 2.52-2.12 1.68-.32 3.44-.36 5.16-.36 2.92-.04 5.88.2 8.8.32 2.92.08 5.8-.08 8.72-.32 1.2-.12 3.32-.6 4.48-.2 1.2.44 1.52 1.04 1.56 2.16.04.88.04 1.76.08 2.68.04.76 1.24.76 1.2 0-.04-1.36.36-3.76-.32-5.04-.64-1.12-2.12-1-3.24-1-4.56 0-9 .68-13.6.48-4.24-.16-8.52-.52-12.72.12-3.44.52-4.32 2.64-3.16 5.84.16.64 1.32.32 1.08-.4z" transform="matrix(-1 0 0 1 538 0) translate(254 6)"></path><path d="M240.2 161.8c.32-.72.6-1.44.92-2.16.36-.04.72-.08 1.08-.16.48-.04.92 0 1.4-.04 1.04 0 2.04-.04 3.08-.04 2.2-.04 4.36-.04 6.56-.08 2.04-.04 4.12-.04 6.16-.08.52 0 1.04 0 1.56-.04.64 0 .84-.16 1.04.32.24.6-.2 2.28-.28 2.92-.08.76 1.12.76 1.2 0 .08-.96.68-2.96.2-3.84-.4-.72-1-.6-1.8-.6-3.84 0-7.72.12-11.56.16-1.8.04-3.6.04-5.4.08-1.36 0-3.04-.16-4.28.48-1.44.76-2.12 2.72-.72 3.88.6.52 1.44-.32.84-.8z" transform="matrix(-1 0 0 1 538 0) translate(254 6)"></path><path d="M248.44 156.92c-1.04-1.4 3.32-1.24 3.6-1.28.96-.08 4.24-.68 3.6 1.48-.24.76.92 1.04 1.16.32.28-.96-.04-1.84-.8-2.48-1.32-1.08-2.96-.56-4.52-.48-1.24.04-2.72-.36-3.72.6-.72.64-.92 1.64-.36 2.44.48.6 1.52 0 1.04-.6zM187.24 176.4c1.52 2.08 3.32 3.8 5.44 5.24.64.44 1.24-.6.6-1.04-1.92-1.32-3.64-2.92-5-4.84-.48-.6-1.52 0-1.04.64z" transform="matrix(-1 0 0 1 538 0) translate(254 6)"></path><path d="M192.52 181.24h3.96c.76 0 2 .2 2.68-.16.52-.28.68-.92.92-1.4.64-1.28 1.4-2.48 2.28-3.64.48-.6-.36-1.44-.84-.84-.44.52-.84 1.08-1.24 1.64-.48.76-.8 1.84-1.36 2.52-1.12 1.32-4.76.72-6.4.68-.76 0-.76 1.2 0 1.2z" transform="matrix(-1 0 0 1 538 0) translate(254 6)"></path><path d="M196.96 176.32c.32 1.2.64 2.44 1 3.64.2.76 1.36.44 1.16-.32-.32-1.2-.64-2.44-1-3.64-.2-.76-1.36-.44-1.16.32zM245.72 176.12c.64 1.32 1.32 2.6 2.16 3.8.44.64 1 1.64 1.76 2 .8.4 1.92.08 2.72 0 1.44-.16 2.88-.28 4.32-.44.76-.08.76-1.28 0-1.2-.96.08-1.92.2-2.88.28-.84.08-2.08.44-2.88.28-2.08-.4-3.36-3.68-4.16-5.36-.36-.68-1.4-.08-1.04.64z" transform="matrix(-1 0 0 1 538 0) translate(254 6)"></path><path d="M256.72 175.12c-.48 1.72-.72 3.48-.68 5.24.04.76 1.24.76 1.2 0-.04-1.68.16-3.32.6-4.92.24-.72-.92-1.04-1.12-.32z" transform="matrix(-1 0 0 1 538 0) translate(254 6)"></path><path d="M257.24 180.96c1.6-1.52 3.12-3.12 4.6-4.76.52-.56-.32-1.44-.84-.84-1.48 1.64-3 3.24-4.6 4.76-.56.52.28 1.36.84.84zM.36 58.96v33.8c0 .76 1.2.76 1.2 0v-33.8c0-.76-1.2-.76-1.2 0z" transform="matrix(-1 0 0 1 538 0) translate(254 6)"></path><path d="M1.32 93.68H44.2c.76 0 .76-1.2 0-1.2H1.32c-.8 0-.8 1.2 0 1.2zM1.32 59.56h41.6c.76 0 .76-1.2 0-1.2H1.32c-.8 0-.8 1.2 0 1.2z" transform="matrix(-1 0 0 1 538 0) translate(254 6)"></path><path d="M42.92 58.96v33.8c0 .76 1.2.76 1.2 0v-33.8c0-.76-1.2-.76-1.2 0zM22.68 57.96c-.04-.52.04-1 .28-1.48.12-.28.6-1 .88-.8.32.2.44 1.12.48 1.44.12.6.12 1.2.04 1.8-.08.76 1.12.76 1.2 0 .08-1.04 0-2.08-.36-3.08-.24-.64-.56-1.4-1.32-1.48-1.64-.2-2.48 2.32-2.4 3.56.04.84 1.24.84 1.2.04zM2.64 62.84V89.8c0 .76 1.2.76 1.2 0V62.84c0-.76-1.2-.76-1.2 0z" transform="matrix(-1 0 0 1 538 0) translate(254 6)"></path><path d="M3.24 90.4h37.68c.76 0 .76-1.2 0-1.2H3.24c-.76 0-.76 1.2 0 1.2z" transform="matrix(-1 0 0 1 538 0) translate(254 6)"></path><path d="M41.88 89.48V62.52c0-.76-1.2-.76-1.2 0v26.96c0 .8 1.2.8 1.2 0z" transform="matrix(-1 0 0 1 538 0) translate(254 6)"></path><path d="M3.56 63.76h36.4c.76 0 .76-1.2 0-1.2H3.56c-.76 0-.76 1.2 0 1.2zM3.76 84.04c4.68-1.4 9.44-2.64 14.08-.48 3.32 1.56 6.2 3.92 9.92 4.6.76.12 1.08-1 .32-1.16-4.24-.8-7.44-3.88-11.48-5.24-4.36-1.44-8.92-.16-13.16 1.12-.72.24-.4 1.4.32 1.16z" transform="matrix(-1 0 0 1 538 0) translate(254 6)"></path><path d="M19.36 83.36c5.72-2 11.68-2.72 17.68-2.12.76.08.76-1.12 0-1.2-6.12-.6-12.2.12-18 2.16-.72.28-.4 1.44.32 1.16zM20.6 74.08c-.44-.76-.32-1.88.44-2.4.68-.48 1.76-.28 2.24.36.48.68.2 1.76-.56 2.16-.88.44-1.88-.4-1.88-1.28 0-.76-1.2-.76-1.2 0-.04 1.6 1.6 2.96 3.2 2.52 1.48-.4 2.28-2.28 1.64-3.64-.64-1.44-2.56-1.96-3.92-1.24-1.48.8-1.84 2.76-1.04 4.16.44.64 1.44.04 1.08-.64zM215.44 64.76c1.44 1.92 1.72 4.52 3.48 6.2 1.64 1.6 3.6 1.36 5.6.64.72-.24.4-1.4-.32-1.16-1.08.36-2.32.76-3.44.32-.96-.4-1.6-1.28-2.08-2.2-.76-1.48-1.2-3.08-2.2-4.44-.48-.6-1.52 0-1.04.64z" transform="matrix(-1 0 0 1 538 0) translate(254 6)"></path><path d="M224.36 71.12c1.92-1.64 3.6-3.52 5.04-5.6.44-.64-.6-1.24-1.04-.6-1.36 2-3 3.8-4.84 5.36-.6.48.24 1.36.84.84zM221.44 64.32c.56 1.32.8 2.68.76 4.08-.04.76 1.16.76 1.2 0 .04-1.64-.28-3.2-.92-4.68-.28-.72-1.32-.12-1.04.6zM189.4 220.8v16c0 .76 1.2.76 1.2 0v-16c0-.76-1.2-.76-1.2 0zM174.8 239h42.4c.76 0 .76-1.2 0-1.2h-42.4c-.76 0-.76 1.2 0 1.2zM197.8 240v10c0 .76 1.2.76 1.2 0v-10c0-.76-1.2-.76-1.2 0z" transform="matrix(-1 0 0 1 538 0) translate(254 6)"></path><path d="M174.4 251.8H212c.76 0 .76-1.2 0-1.2h-37.6c-.76 0-.76 1.2 0 1.2zM183.8 252.8v7.6c0 .76 1.2.76 1.2 0v-7.6c0-.76-1.2-.76-1.2 0zM187.8 59.12c0-1.68-.32-3.8 0-5.44.44-2.32 3.68-1.88 5.56-2 .76-.04.76-1.24 0-1.2-1.52.08-3.12.08-4.64.32-.68.12-1.28.32-1.68.92-.48.72-.4 1.72-.4 2.56v4.84c-.04.8 1.16.8 1.16 0zM180.76 14.44c3.64-1 7.28-.76 10.76.64.72.28 1.04-.88.32-1.16-3.68-1.48-7.56-1.68-11.4-.64-.76.24-.44 1.4.32 1.16zM179.28 10.84c3.2-2.2 7.04-2.6 10.64-1.16.72.28 1.04-.88.32-1.16-3.84-1.56-8.16-1.08-11.56 1.28-.64.44-.04 1.48.6 1.04zM166.28 31.8c-1.28.88-3.72 2.04-4.08 3.72-.16.88.24 1.68.56 2.48.56 1.4 1.12 2.8 1.72 4.2 2.32 5.48 4.92 10.84 7.8 16.04.36.68 1.4.08 1.04-.6-2.2-4-4.24-8.08-6.12-12.24-1-2.2-1.96-4.44-2.84-6.68-.52-1.32-1.24-2.48-.28-3.84.56-.8 2-1.48 2.84-2.04.6-.44 0-1.48-.64-1.04z" transform="matrix(-1 0 0 1 538 0) translate(254 6)"></path></g><g fill-rule="nonzero"><path fill="#FFF" stroke="#161616" stroke-width="1.2" d="M66.08 49.44c-3.28 2.44-7.24 6.36-8.68 11.96-1.04 4.16-.04 6.6-.4 11.96-.24 3.72-1.2 8.96-4.28 15.2-7-1.44-18.76-2.84-32.64.36-8.28 1.92-14.92 4.92-19.8 7.64.76.48 1.8 1.04 3.12 1.4 7.48 2.04 15.36-4.24 15.6-3.8.24.4-8.8 4.64-8.32 8.32.32 2.48 4.76 3.8 9.36 5.2 3.88 1.16 7.56 2.28 12.48 1.72 6.76-.76 11.44-4.16 13.52-5.92 2 1 4.96 2.32 8.68 3.48 6.84 2.08 16.28 4.96 22.56 1.04 4.08-2.56 5.32-8.56 7.64-20.48 2.8-14.52 4.12-21.8.36-27.76-4.92-7.96-15.04-9.8-19.2-10.32z" transform="matrix(-1 0 0 1 538 0) translate(186 184.4)"></path><path fill="#161616" d="M51.44 89c4.84 1.8 8.84 5.08 11.6 9.44.4.64 1.44.04 1.04-.6-2.92-4.64-7.2-8.08-12.32-10-.76-.28-1.04.88-.32 1.16zM25.68 96.88c-4.76.8-8.6 4-10.32 8.48-.28.72.88 1.04 1.16.32 1.56-4.08 5.16-6.92 9.48-7.64.76-.12.44-1.28-.32-1.16zM31.28 100.88c-1.72 1.04-3.32 2.24-4.84 3.52-1 .88-2.12 1.92-1.88 3.36.6 3.8 5.16 2.96 7.64 2 .72-.28.4-1.44-.32-1.16-1.08.4-2.28.92-3.44.88-1.88-.08-3.56-1.88-1.96-3.52 1.52-1.6 3.52-2.88 5.4-4.08.64-.4.04-1.44-.6-1z" transform="matrix(-1 0 0 1 538 0) translate(186 184.4)"></path><path fill="#4C5BBB" d="M103.4.2c-2.04.68-4.64 1.72-7.56 3.16-.84.4-2.96 1.48-5.24 2.96-3.52 2.24-6.08 4.6-9 7.56-3.72 3.8-7.48 7.6-11.96 13.68-3.76 5.12-9.6 13.16-13.8 24.96-1.68 4.68-2.64 8.72-3.2 11.6 2.2-1.28 4.2-1.92 5.76-2.28 9-2.04 17.64 2.52 25.84 6.8 3.08 1.6 5.52 3.16 7.2 4.24.88-4.32 1.76-8.68 2.64-13 .76-3.64 1.48-7.32 2.24-10.96 1.16-1 2.72-2.48 4.44-4.4 3.24-3.68 9.68-11 10.56-21.16C112.4 11.64 105.44 2.68 103.4.2z" transform="matrix(-1 0 0 1 538 0) translate(186 184.4)"></path><path fill="#161616" d="M101.04.68c-4.28.64-7.96 2.92-11.28 5.56-3.84 3-7.44 6.32-10.8 9.84-6.56 6.8-12.28 14.4-17 22.6-.4.68.64 1.28 1.04.6C67.56 31.36 73 24 79.32 17.4c3.08-3.2 6.32-6.24 9.72-9.08 3.64-3 7.52-5.8 12.32-6.52.76-.08.44-1.24-.32-1.12zM99.36 44.36c-2.96 3-6 5.92-9.08 8.76-.56.52.28 1.36.84.84 3.08-2.84 6.12-5.76 9.08-8.76.52-.56-.32-1.4-.84-.84z" transform="matrix(-1 0 0 1 538 0) translate(186 184.4)"></path><path fill="#161616" d="M95.2 49.84c-1.4 7.68-2.76 15.4-4.16 23.08.28-.12.6-.24.88-.36-6.36-4.44-13.44-7.76-20.96-9.84-5.88-1.6-13.36-3.16-18.4 1.28-.56.52.28 1.36.84.84 5.12-4.56 13.4-2.16 19.2-.4 6.68 2.04 12.96 5.16 18.68 9.12.32.2.8 0 .88-.36 1.4-7.68 2.76-15.4 4.16-23.08.16-.72-1-1.04-1.12-.28z" transform="matrix(-1 0 0 1 538 0) translate(186 184.4)"></path><path fill="#161616" d="M62.24 38.12C58.08 46.24 52.88 54.6 52.52 64c-.04.76 1.16.76 1.2 0 .36-9.16 5.48-17.32 9.56-25.28.32-.68-.72-1.28-1.04-.6z" transform="matrix(-1 0 0 1 538 0) translate(186 184.4)"></path><path fill="#5865BA" d="M97.8 23c-7.16 14.24-11.04 26.24-13.32 34.64C81.16 69.96 80 79.68 71.4 87.76c-1.4 1.32-5.52 5.12-12 7.48-13.6 4.92-23.68-1.72-32.24 5.32-.96.8-3.8 2.8-3.48 5.08.32 2.16 3.28 3.28 3.72 3.48 3.52 1.36 7.16-.04 11.72-1.88 5.16-2.08 4.6-2.8 6.92-3.2 4.88-.84 7.12 2.24 13.6 4.28 2.76.84 10.92 3.4 16.8 0 4.32-2.52 5.64-7.24 7.72-15.2 1.44-5.4 2.92-13.28 2.68-23.2l4.8 3.72C93.72 56.76 95.76 39.88 97.8 23z" opacity=".4" transform="matrix(-1 0 0 1 538 0) translate(186 184.4)"></path><path fill="#3D3D3D" d="M95.4 40.32c-5.48 10.36-8.16 19.12-9.6 25.04-2.88 11.88-1.96 17.48-5.88 25.84-4.2 9.08-11 14.84-15.72 18.12 2.64.6 9 1.72 13.6-1.88 3.24-2.52 4.08-6.12 5.32-12 1.56-7.24 3.2-15.48 4.8-24.52l3.72 2.4c1.28-10.96 2.52-22 3.76-33z" opacity=".38" transform="matrix(-1 0 0 1 538 0) translate(186 184.4)"></path></g><g fill-rule="nonzero"><path fill="#4C5BBB" d="M18.56 9c-1.44 9.4-2.84 18.88-4.2 28.4C9.08 74.32 4.52 110.6.68 146.28c.08 1.2.4 3.12 1.6 5.04 1.2 1.96 2.8 2.96 3.56 3.48 7.28 5.2 10.92 7.84 14.6 9.6 17.64 8.52 37.16 7.52 37.16 7.52 4.12-.2 12.32-.72 21.12-4.24.48-.2 3.84-1.76 10.56-4.92 6.08-2.84 7.16-3.4 8.64-4.76 3.52-3.24 4.88-7.24 5.8-10.08 1.96-6.04 1.76-11.16 1.68-12.4 0 0-.4-9.96-.68-68.12-.04-11.84 1.12-29.24 7.36-50.72-6.48-3.16-12.56-6.08-19.88-9.6-5.04-2.44-9.72-4.68-16.44-5.48-1.92-.24-3.64-.32-6.2-.28C59.16 1.4 50.6 3 46.92 3.64 39.76 4.8 30.08 6.56 18.56 9z" transform="matrix(-1 0 0 1 538 0) translate(270 174.8)"></path><path fill="#161616" d="M18.24 10.4c12.4-2.64 24.92-4.76 37.48-6.32.56-.08.88-.8.32-1.12-.16-.08-.32-.2-.52-.28-.68-.4-1.28.64-.6 1.04.16.08.32.2.52.28.12-.36.2-.76.32-1.12-12.68 1.56-25.32 3.68-37.8 6.36-.8.16-.48 1.32.28 1.16zM14.52 31.36c-4.4 31.36-8.4 62.76-12 94.24-.44 3.96-.88 7.88-1.32 11.84-.36 3.44-1.36 7.32-.92 10.76.4 3.04 2.8 4.96 5 6.8 2.4 2 4.92 3.88 7.56 5.6 10.84 7 23.52 11.2 36.4 11.96 15.32.88 30.72-3.04 43.8-11.04.64-.4.04-1.44-.6-1.04-22.88 13.96-52 14.52-75.32 1.28-2.68-1.52-5.28-3.2-7.76-5.04-2.52-1.88-6.6-4.44-7.64-7.52-.48-1.48-.24-3.12-.08-4.68.2-1.96.44-3.96.64-5.92.4-3.68.8-7.36 1.24-11.04 1.72-15 3.48-29.96 5.4-44.92 2.16-17 4.4-34 6.8-50.96.08-.76-1.08-1.08-1.2-.32zM73.44 1.24c7.04 1.4 13.64 4.64 20.2 7.4 6.44 2.72 13.6 4.92 19.28 9.08.64.44 1.24-.6.6-1.04-5.56-4.08-12.56-6.24-18.84-8.88-6.8-2.84-13.64-6.24-20.92-7.72-.76-.16-1.08 1-.32 1.16z" transform="matrix(-1 0 0 1 538 0) translate(270 174.8)"></path><path fill="#161616" d="M104.8 69.08c-.64 16.84-1.28 33.68-.68 50.48.28 8.16 1.56 16.64.04 24.76-1.28 6.68-5.04 13.36-11.72 15.84-.72.28-.4 1.44.32 1.16 10.64-3.96 13.4-16.08 13.24-26.24-.08-6.88-.68-13.76-.84-20.68-.16-7.04-.08-14.04.04-21.08.16-8.08.48-16.16.76-24.24.08-.8-1.12-.8-1.16 0z" transform="matrix(-1 0 0 1 538 0) translate(270 174.8)"></path><path fill="#3E4BA0" d="M99.04 59.6c-2.12 7.28-5.44 15.24-10.56 23.16-22.92 35.24-64.88 42.28-75.6 43.76 14.4 1.52 28.96 3.16 43.68 4.92 16.24 1.92 32.28 3.96 48.08 6.04-1-17.88-1-32.6-.76-43.12.44-21.76 2-39.36-.84-39.92-.68-.16-1.88.6-4 5.16z" opacity=".38" transform="matrix(-1 0 0 1 538 0) translate(270 174.8)"></path><path fill="#3D3D3D" d="M103.96 72.68c-1.44 4.24-3.64 10.24-6.88 17.16-4.56 9.8-8.92 19.24-14.56 25.04-15.76 16.2-46.56 9.2-46.64 10.32-.04.64 11.24 2.44 68.2 7.68 0-20.08-.04-40.12-.12-60.2z" opacity=".42" transform="matrix(-1 0 0 1 538 0) translate(270 174.8)"></path></g><g><path fill="#FFF" fill-rule="nonzero" stroke="#161616" stroke-width="1.2" d="M442.12 134.4C295.32 114.8 148.48 95.2 1.68 75.64 45 50.52 88.36 25.4 131.68.28 264.12 13.32 396.6 26.4 529.04 39.44c-29 31.64-57.96 63.32-86.92 94.96z" transform="matrix(-1 0 0 1 538 0) translate(3.6 278)"></path><path stroke="#161616" stroke-width="6.4" d="M.24 79.04c147.16 19.52 294.32 39.04 441.44 58.56M438.88 138.48c30.84-32.6 61.68-65.24 92.48-97.84" transform="matrix(-1 0 0 1 538 0) translate(3.6 278)"></path><path fill="#161616" fill-rule="nonzero" d="M389.76 52.8c-15 11.72-29.68 23.8-44.12 36.2-.6.52.28 1.36.84.84 14.44-12.4 29.16-24.48 44.12-36.2.6-.44-.24-1.32-.84-.84z" transform="matrix(-1 0 0 1 538 0) translate(3.6 278)"></path><path fill="#161616" fill-rule="nonzero" d="M346.2 89.64c4.72 1 9.52 1 14.36 1.04 5.44.08 10.56.64 15.76 2.16 9.76 2.84 19.32 4.72 29.52 4.48.76 0 .76-1.2 0-1.2-5.24.12-10.48-.2-15.68-1.04-4.88-.8-9.52-2.24-14.28-3.56-4.56-1.28-9.12-1.88-13.88-1.96-5.2-.12-10.4.04-15.52-1.04-.72-.2-1.04.96-.28 1.12zM390.64 53.68c15.84 1.28 31.56 3.8 47 7.56.76.2 1.08-.96.32-1.16-15.52-3.8-31.36-6.32-47.32-7.6-.76-.08-.76 1.12 0 1.2z" transform="matrix(-1 0 0 1 538 0) translate(3.6 278)"></path><path fill="#161616" fill-rule="nonzero" d="M406.76 96.6c11.16-11.04 21.88-22.56 32.04-34.56.48-.6-.36-1.44-.84-.84-10.16 11.96-20.88 23.48-32.04 34.56-.56.56.28 1.4.84.84zM360.16 84.88c13.76-1.68 27.68.04 40.6 5.08.72.28 1.04-.88.32-1.16-13-5.04-27.08-6.8-40.92-5.12-.76.08-.76 1.28 0 1.2zM381 80.48c8.48.64 16.84 1.96 25.12 3.92.76.2 1.08-.96.32-1.16-8.36-2-16.84-3.32-25.44-3.96-.8-.04-.76 1.16 0 1.2zM374.64 71.64c12.76.28 25.4 2.12 37.72 5.52.76.2 1.08-.96.32-1.16-12.4-3.4-25.16-5.28-38.04-5.56-.76 0-.76 1.2 0 1.2zM390.48 67.96c6.88.96 13.68 2.16 20.48 3.6.76.16 1.08-1 .32-1.16-6.8-1.44-13.6-2.64-20.48-3.6-.76-.12-1.08 1.04-.32 1.16zM381.72 94.8c-2.44 3.76-4.88 7.52-7.36 11.24-.24.36.08.96.52.92 19.72-2.24 39.72-.96 59 3.76.76.2 1.08-.96.32-1.16-19.4-4.76-39.48-6.04-59.32-3.84.16.32.36.6.52.92 2.44-3.76 4.88-7.52 7.36-11.24.44-.64-.6-1.24-1.04-.6z" transform="matrix(-1 0 0 1 538 0) translate(3.6 278)"></path><path fill="#161616" fill-rule="nonzero" d="M430.08 72.08l23.12-.48c-.2-.24-.4-.52-.56-.76-5.32 12.68-10.68 25.32-16 38-.28.72.88 1.04 1.16.32 5.32-12.68 10.68-25.32 16-38 .16-.36-.24-.76-.56-.76l-23.12.48c-.8.04-.8 1.24-.04 1.2zM400.84 101.88c2.04-.4 4.08-.48 6.16-.32.76.04.76-1.16 0-1.2-2.2-.16-4.32-.04-6.48.36-.76.12-.44 1.28.32 1.16zM412.2 102c6.28.24 12.56.84 18.8 1.8.76.12 1.08-1.04.32-1.16-6.32-1-12.72-1.6-19.12-1.84-.76-.04-.76 1.16 0 1.2zM412.56 94.48h4.48c.76 0 .76-1.2 0-1.2h-4.48c-.76 0-.76 1.2 0 1.2z" transform="matrix(-1 0 0 1 538 0) translate(3.6 278)"></path><path fill="#161616" fill-rule="nonzero" d="M421.88 94.36c4.92.12 9.8.6 14.68 1.4.76.12 1.08-1.04.32-1.16-4.96-.8-9.96-1.28-15-1.44-.76 0-.76 1.2 0 1.2zM421.12 87.52c5.6.08 11.16.4 16.72 1.04.76.08.76-1.12 0-1.2-5.56-.64-11.12-1-16.72-1.04-.76-.04-.76 1.16 0 1.2zM383.56 100.8c2.68.08 5.32-.24 7.96-.88.76-.2.44-1.36-.32-1.16-2.52.64-5.04.92-7.64.84-.76 0-.76 1.2 0 1.2zM402.56 38.12c-1.04 1.28-2.24 3.88-1 5.44.76.96 2.2.76 3.28.8 1.96.08 3.92.2 5.88.28 7.96.36 15.88.76 23.84 1.12.76.04.76-1.16 0-1.2l-17.6-.84c-2.88-.12-5.72-.28-8.6-.4-1.4-.08-2.88 0-4.28-.2-1.04-.16-1.8-.2-1.76-1.48.04-1 .48-1.92 1.08-2.68.48-.6-.36-1.48-.84-.84z" transform="matrix(-1 0 0 1 538 0) translate(3.6 278)"></path><path fill="#161616" fill-rule="nonzero" d="M403.64 39.64c6.72.24 13.44.44 20.16.68 3.28.12 6.6.2 9.88.32 2.96.12 6.08.32 8.2 2.6.52.56 1.36-.28.84-.84-1.6-1.76-3.76-2.44-6.08-2.76-3.44-.44-7-.36-10.48-.48-7.52-.24-15.04-.52-22.52-.76-.76.04-.76 1.24 0 1.24z" transform="matrix(-1 0 0 1 538 0) translate(3.6 278)"></path><path fill="#161616" fill-rule="nonzero" d="M434.16 45.8c3.08.04 6-.92 8.48-2.76.6-.44 0-1.48-.6-1.04-2.32 1.72-4.96 2.64-7.88 2.6-.8 0-.8 1.2 0 1.2z" transform="matrix(-1 0 0 1 538 0) translate(3.6 278)"></path><path fill="#161616" fill-rule="nonzero" d="M435.12 39.64c-1.68 1.12-2.44 3.2-1.88 5.12.2.72 1.36.44 1.16-.32-.4-1.4.08-2.96 1.32-3.8.64-.4.04-1.44-.6-1z" transform="matrix(-1 0 0 1 538 0) translate(3.6 278)"></path></g><g fill-rule="nonzero"><path fill="#FAE3D9" d="M109.64 158.64c-1-2.08-3.84-2.24-5.36-.68-1.64 1.68-2.4 4.92-2.24 7.2.36 4.6 4.84 6.76 6.04 10.88.56 1.88 3.44 2.48 4.4.56 1.6-3.16 3.84-5.88 5.84-8.76 1.76-2.56 4.44-6.52 3.48-9.8-.4-1.4-1.64-2.6-3.16-2.76-1.84-.2-3.12.92-4.2 2.28-1.08 1.4-2.04 2.84-2.84 4.4-.72 1.36-1.28 2.96-2.68 3.72 1.16.48 2.36.96 3.52 1.44-.52-1.72-1.04-3.44-1.52-5.12-1.32.76-2.68 1.56-4 2.32 1.8 2.04 4.88 2.32 7.04.6 1-.8 1.56-1.88 2.24-2.92.32-.48.6-.92 1.08-1.24.32-.24.72-.4 1.12-.52.8-.04.76-.12-.08-.24-.4-.68-.8-1.4-1.2-2.08v.28c.6-.76 1.16-1.56 1.76-2.32-.08.04-.16.04-.24.08-2.92.92-1.68 5.56 1.28 4.64.08-.04.16-.04.24-.08 1.08-.32 1.68-1.24 1.76-2.32v-.28c.04-.84-.52-1.64-1.2-2.08-2-1.28-4.96-.04-6.6 1.28-.92.76-1.56 1.64-2.2 2.64-.4.64-.84 2-1.6 1.12-1.6-1.8-4.68.12-4 2.32.52 1.72 1.04 3.44 1.52 5.12.44 1.52 2.16 2.2 3.52 1.44 2.04-1.08 3.16-2.96 4.16-4.96.6-1.16 1.2-2.28 1.96-3.32.12-.2 1.2-1.32 1.16-1.52-1.04-.88-1.56-.84-1.64.12-.08.32-.2.6-.32.88-2 4.84-6 8.52-8.36 13.16 1.48.2 2.92.4 4.4.56-.76-2.6-2.48-4.48-4.12-6.56-.68-.88-1.44-1.84-1.68-2.92-.16-.76-.08-1.44.12-2.16.12-.48.28-.92.48-1.36.68-.96 0-1.2-2-.68 1.32 2.84 5.44.4 4.12-2.36z" transform="matrix(-1 0 0 1 538 0) translate(37.2 15.2)"></path><path fill="#FAE3D9" d="M112.24 171.76c3.52-4.24 6.6-8.76 9.16-13.6 1.44-2.72-2.72-5.16-4.16-2.44-2.36 4.52-5.12 8.76-8.4 12.64-1.96 2.36 1.4 5.76 3.4 3.4zM121.72 103.88c-.64 4.2-.48 8.32.64 12.44.6 2.24 4.08 1.28 3.48-.96-.92-3.44-1.2-7-.64-10.52.32-2.28-3.16-3.24-3.48-.96z" transform="matrix(-1 0 0 1 538 0) translate(37.2 15.2)"></path><path fill="#FAE3D9" d="M123.08 105.72c4.4 1.88 7.92-1.8 8.08-6.12 0-.4-.24-1.48-.08-1.84h-.2c.36.12.64.32.8.68.64.8.96 1.84 1.64 2.64 1.4 1.64 3.32 1.88 5.36 2 1 .04 2.2-.08 2.8.88.6.92.28 2.48.2 3.52-.08 1.44-.2 2.92-.32 4.36-.04.36-.4 1.72.12 1.2-.32.36-1.64.44-2.08.56-2.64.6-5.36.84-8.04.68-1.4-.08-3.52.08-4.32-1.16-.72-1.16-.76-2.92-.56-4.24-1.08.16-2.2.28-3.28.44.96 2.12 1.88 4.24 2.84 6.4.64 1.4 2.96 1 3.28-.44.96-4.32-.36-8.84 1-13.08-1 .28-2 .52-3 .8 1.16 1.4.88 4.4 1.16 6.12.32 2 .88 3.84 1.8 5.6.84 1.52 3.48.88 3.36-.92-.32-4.8-.64-9.64-.92-14.44-1.16.16-2.36.32-3.52.48 1.68 4.52 1.92 9.24.6 13.88l2.64-1.08c-2.24-1.72-3.92-3.96-5.08-6.52-.76-1.64-3.44-.8-3.36.92.08 1.6.12 3.2.2 4.8h3.6c-.08-2 0-3.96.4-5.92.16-.68.32-1.4.52-2.08.12-.44.28-.92.44-1.36.52-.64.44-.88-.24-.72 1.92 2.72 2.16 6.8 1.84 9.96 1.12-.32 2.24-.6 3.36-.92-.92-1.88-1.52-3.88-1.76-5.96-.12-1.08-.16-2.16-.08-3.24 0-.16.2-1.28.12-1.36-.28.04-.56.04-.84.08.16.32.32.6.48.92 1.84 3.76 2.4 8 1.96 12.16 1.12-.32 2.24-.6 3.36-.92-.72-1.56-1.28-3.2-1.6-4.88-.12-.72-.2-1.44-.12-2.16.04-.4.12-.8.24-1.2.44-.48.48-.68.12-.56-.48-.08-.92-.12-1.4-.2.64.32 1.04 3.48 1.16 4.2.24 1.72.2 3.52-.04 5.24h3.48c-.44-1.28-.76-2.6-.96-3.92-.2-1.28-.08-2.6-.48-3.84.88 2.76.72 5.68-.08 8.4 1.08-.16 2.2-.28 3.28-.44-.48-1.04-.88-2.16-1.08-3.32-.12-.56-.16-1.12-.2-1.68 0-.24-.04-.48 0-.72.12-.56-.16-.6-.8-.16l-1.08-.84c2.28 3.92-2.28 8.28-6.16 7.72.44.56.88 1.16 1.32 1.72-.04-.72-.28-1.76-.04-2.44l-.84 1.08c-.68.44 2.96-.08 1.44-.24-2.08-.2-2.4 3-.48 3.52s3.68 1.56 5.72 1.32c1.76-.2 3.08-1.24 3.8-2.8.76-1.64.92-3.56.68-5.36-.12-1-.36-1.92-.76-2.8-.16-.4-.36-.8-.56-1.2-.12-.24-.28-.48-.44-.72-.16-.36-.24-.28-.16.24 1.12.32 2.24.6 3.36.92.04-.76.12-1.48.16-2.24-1.16.16-2.36.32-3.52.48.68 2 .56 3.84-.24 5.8-.88 2.16 2.6 3.08 3.48.96 1-2.52 1.08-5.16.24-7.72-.64-1.96-3.4-1.56-3.52.48-.04.76-.12 1.48-.16 2.24-.12 1.76 2.6 2.52 3.36.92.88-1.92.64-4.4-1.4-5.48-1.76-.92-4.12-.12-4.96 1.68-1.16 2.48 1.44 4.68 1.68 7.08.12 1.12.12 3.36-1.12 3.92-1.2.52-3.48-.88-4.6-1.2-.16 1.16-.32 2.36-.48 3.52 3.64.32 3.72-4.48 1.2-6.04-1.24-.76-2.92-1.36-4.24-.56-1.64 1-1.16 3-1.12 4.6.04.72.52 1.64 1.32 1.72 6.4.92 12.24-4.2 11-10.88-.24-1.32-.76-2.8-2.24-3.08-1.24-.24-2.48.48-3 1.6-1.32 2.84.24 7.04 1.44 9.64.68 1.48 2.88.96 3.28-.44.8-2.68 1.04-5.44.56-8.2-.36-2.08-1-4.8-3.6-4.88-5.8-.12-3.4 9.4-2.4 12.4.52 1.52 3.16 1.88 3.48 0 .48-3.08.44-6.16-.36-9.2-.48-1.8-1.44-5.32-4.04-4.4-2.08.76-2.72 3.76-2.72 5.72 0 2.88 1.04 5.72 2.24 8.24.84 1.8 3.2.68 3.36-.92.36-3.36.08-6.76-.88-10-.68-2.28-1.92-6.88-4.96-6.76-2.96.08-3.12 3.88-3.12 6.04 0 3.48.88 6.84 2.4 10 .84 1.76 3.2.68 3.36-.92.32-2.84.04-5.72-.84-8.44-.64-2-1.68-4.88-4.08-5.16-2.64-.28-3.56 2.76-4.16 4.72-.88 2.88-1.16 5.92-1.04 8.96.12 2.32 3.68 2.32 3.6 0-.08-1.6-.12-3.2-.2-4.8-1.12.32-2.24.6-3.36.92 1.44 3.16 3.64 5.72 6.36 7.8.96.72 2.36-.08 2.64-1.08 1.52-5.2 1.32-10.72-.6-15.8-.68-1.76-3.68-1.68-3.52.48.32 4.8.64 9.64.92 14.44 1.12-.32 2.24-.6 3.36-.92-2.08-3.88-.68-9.04-3.52-12.48-.92-1.12-2.64-.4-3 .8-1.4 4.28-.04 8.76-1 13.08 1.08-.16 2.2-.28 3.28-.44-.96-2.12-1.88-4.24-2.84-6.4-.6-1.36-3.04-1.04-3.28.44-.44 2.8-.24 6.72 2.2 8.64 1.12.88 2.6.96 4 1.12 1.88.2 3.8.28 5.72.16 1.84-.12 3.64-.4 5.44-.8 1.2-.28 2.8-.48 3.64-1.44 1.08-1.16.88-3.04 1-4.52.12-1.76.32-3.48.36-5.24.04-2.88-1.12-5.4-4.08-6.12-1.2-.28-2.44-.12-3.68-.32-1.92-.28-2.12-1.92-3.16-3.28-1.32-1.76-4.16-2.88-5.96-1.16-1.16 1.12-.92 2.56-.88 4 .04 1.28-.6 4.52-2.64 3.64-2.44-.56-4.28 2.56-2.16 3.44zM17.08 125.64c2.8 2.56 5.44 5.32 7.72 8.36 1.52 2 3.08 6 5.8 6.56 1.6.32 2.88-.52 4.08-1.48 1.64-1.32 3.24-2.68 4.88-4.04 1.64-1.36 3.24-2.68 4.88-4.04 1.16-.96 2.48-1.84 2.56-3.48.08-1.56-.92-2.72-1.84-3.88-1.28-1.64-2.6-3.28-3.88-4.92-1.28-1.64-2.6-3.28-3.88-4.92-.96-1.2-1.84-2.8-3.44-3.16-1.44-.32-2.76.52-3.96 1.16-1.6.84-3.16 1.8-4.64 2.8-2.92 2-5.64 4.28-8.12 6.84-.76.8-.68 2.28.36 2.84 2.6 1.32 5.08 2.88 7.32 4.8 1 .84 1.96 1.76 2.88 2.72.44.48.88.96 1.32 1.48.28.32.56.68.84 1 .36.96.88.92 1.52-.2.16 1.08.28 2.2.44 3.28 4.16-2.52 7.96-5.64 11.24-9.24 1.36-1.52-.36-3.84-2.2-2.84-2.8 1.52-5.68 2.76-8.68 3.72l2.04 2.64c1.68-2.68 3.76-5 6.2-7.04-.96-.72-1.88-1.44-2.84-2.2-2.2 3.28-4.96 6.16-8.12 8.52l2.64 2.04c1.04-3.76 3.16-7.08 6.32-9.44l-2.48-2.48c-1.8 3.56-4.32 6.6-7.56 8.92h1.8c.12.12.2.28.32.4.08-.32.16-.64.24-.92.12-.4.24-.8.4-1.24.36-1.08.84-2.08 1.36-3.08 1-1.88 2.24-3.52 3.72-5.04-.96-.72-1.88-1.44-2.84-2.2-2.12 4.36-5.04 8.16-8.72 11.36 1.04.44 2.04.84 3.08 1.28.44-4.72 2.48-9.04 5.8-12.44-.96-.72-1.88-1.44-2.84-2.2-1.64 3.2-4.04 5.72-7.16 7.52.92.52 1.8 1.04 2.72 1.56-.04-1.44.16-2.84.84-4.12.28-.56.64-1.08 1.04-1.52.64-.76 1.84-.96.72-1.68-.52-.64-.8-.6-.84.2-.2.4-.36.8-.56 1.2-.32.6-.64 1.16-.96 1.72-.36.56-.72 1.12-1.12 1.64-.32.4-.6.8-.96 1.2-.56.32-.6.56-.12.68l.84 1.08c-.4-1.28.92-3.68 1.52-4.76.36-.6 2.44-4.04 3.36-3.84.44.08 1.04 2.32 1.2 2.72.32.88.6 1.8.8 2.72.2.92.44 1.88.44 2.8 0 1.08 0 1.12-.88.36-2.52-2.16-2.8-7.64.92-8.88 1.88-.64 2.44 1.76 2.88 3.12.64 1.96 1.24 3.96 1.88 5.96 1-.6 2-1.16 3-1.76-2.24-2.2-3.44-5-3.52-8.16-.76.56-1.52 1.16-2.28 1.72 4.2 1.6 4.88 6.88 5.44 10.72.32 2.28 3.8 1.32 3.48-.96-.8-5.44-2.28-11.12-7.96-13.24-1.08-.4-2.32.64-2.28 1.72.08 4.08 1.68 7.8 4.56 10.68 1.24 1.24 3.56 0 3-1.76-.72-2.28-1.36-4.56-2.16-6.8-.56-1.6-1.28-3.28-2.76-4.24-3.2-2.12-6.96.28-8.6 3.2-1.88 3.4-1.4 7.64 1.16 10.52 2.12 2.36 6.24 3.64 7.4-.32 1.04-3.52-.76-8.72-2.52-11.76-2.4-4.08-6.36-1-8.4 1.64-1.08 1.4-1.92 2.92-2.52 4.56-.56 1.52-1.48 4-.36 5.48 2.64 3.44 6.44-2.4 7.6-4.32 1-1.6 2.44-3.8 2.2-5.8-.24-1.88-2-2.76-3.68-2.04-3.68 1.6-5.56 6.52-5.4 10.24.04 1.36 1.48 2.24 2.72 1.56 3.6-2.08 6.52-5.12 8.44-8.8.92-1.76-1.36-3.68-2.84-2.2-4 4.08-6.32 9.28-6.84 14.96-.16 1.68 2 2.2 3.08 1.28 3.88-3.36 7.04-7.48 9.28-12.08.84-1.76-1.32-3.72-2.84-2.2-2.32 2.4-4.16 5.16-5.44 8.24-.84 2.04-2.6 5.92.12 7.32.56.28 1.28.36 1.8 0 3.76-2.68 6.8-6.08 8.88-10.2.72-1.44-.88-3.64-2.48-2.48-3.92 2.96-6.68 6.88-7.96 11.6-.4 1.4 1.32 3 2.64 2.04 3.72-2.72 6.84-5.96 9.44-9.8 1.2-1.8-1.36-3.4-2.84-2.2-2.68 2.2-4.92 4.8-6.76 7.76-.84 1.32.56 3.12 2.04 2.64 3.32-1.04 6.52-2.4 9.56-4.08-.72-.96-1.44-1.88-2.2-2.84-3.08 3.4-6.6 6.32-10.52 8.68-1.44.88-.96 2.72.44 3.28 1.68.68 3.48-.68 3.56-2.4.12-2.08-2.04-4.04-3.32-5.4-3.24-3.52-7.12-6.4-11.36-8.52.12.96.24 1.88.36 2.84 1.88-1.92 3.88-3.68 6-5.28 1.92-1.44 4.32-3.36 6.6-4.12.68-.24.64-.36 1.2.2.56.56 1 1.24 1.44 1.84.88 1.12 1.8 2.28 2.68 3.4.96 1.24 1.96 2.48 2.92 3.72.52.68 2.64 2.72 2.48 3.48-.16.88-2.36 2.16-3.08 2.76l-3.36 2.76-3.36 2.76c-.48.4-1.52 1.56-2.36 1.12-.32-.16-.88-1.36-1.08-1.64-2.92-4.4-6.4-8.36-10.28-11.92-1.6-1.4-4.16 1.12-2.44 2.68z" transform="matrix(-1 0 0 1 538 0) translate(37.2 15.2)"></path><path fill="#FAE3D9" d="M19 122.44c1.44 2.8 10.48 18.4 14.32 13.08 1.36-1.88-1.76-3.68-3.12-1.8-.08.08-.12.2-.2.28.52-.28 1.04-.6 1.56-.88-.68.08-2.32-2.2-2.76-2.72-.88-1-1.76-2-2.56-3.08-1.56-2.12-2.92-4.36-4.12-6.68-1.04-2.08-4.16-.24-3.12 1.8zM90.56 73.04c-4.28-3.12-5.92-9.52-3.24-14.2 1.32-2.32 3.72-4.2 6.52-3.88 2.88.32 4.28 2.4 4.48 5.12.12 1.52-.04 3.08-.08 4.6-.08 1.44.08 3.12-.32 4.52-.4 1.4-1.84 2.16-2.4 3.56-.48 1.2.04 2.24-1.36 2.64-.4.12-.96.08-1.32.2-.64-.08-.64.04 0 .32-.16-.52-.28-1-.44-1.52-.52-1.76-1.04-3.56-1.56-5.32-.88-2.96-2.72-7.32-.4-10.08-.96.12-1.92.24-2.92.36 1.4 1.04.88 5.28.96 6.72l.36 9c.12 3.16 4.48 3.04 4.8 0 .32-3.16-.12-6.28-.24-9.48-.08-1.36-.08-2.76.12-4.12.08-.68.24-1.32.44-1.96.12-.44.32-.88.52-1.28.44-.68.44-.76.04-.24-.6.08-1.24.16-1.84.24-.12-.04.44 1.44.52 1.76.16.6.24 1.24.32 1.84.16 1.68.16 3.4.08 5.08-.04.76-.12 1.52-.24 2.32l-.24 1.44c-.4.96.28 1.2 2.04.6.16-.32-.28-1.6-.32-1.96-.08-.84-.12-1.72-.08-2.56.04-1.64.24-3.2.64-4.8.12-.48.24-.92.4-1.4.6-1.04-.04-1.4-1.92-1.04-.16.28.48 1.8.56 2.08.36 1.68.44 3.4.28 5.12-.08.8-.16 3.4-1.08 3.6-3 .72-1.72 5.36 1.28 4.64 3.16-.76 4.04-3.96 4.44-6.8.44-3.36.28-7.16-1-10.32-1.24-3.04-4.88-3.08-6.48-.28-1.6 2.8-1.96 6.76-1.92 9.92.04 2.56.08 6.96 3.16 7.88 3.4 1 4.6-2.68 4.96-5.24.48-3.36.6-6.8.04-10.16-.4-2.48-2-7.24-5.4-6.32-3.28.84-3.92 6.56-4.08 9.28-.2 4.08.68 8.12.28 12.2h4.8c-.16-4.04-.32-8.08-.52-12.12-.12-3.08-.6-5.8-3.2-7.72-.76-.6-2.28-.36-2.92.36-2.64 3.12-2.84 6.96-1.92 10.8.48 2.08 1.16 4.16 1.76 6.2.56 1.92.88 4.24 1.92 5.92 1.64 2.72 6.2 2.08 8.56.68 1.24-.72 2.08-1.92 2.4-3.32.2-.88.12-1.24.68-1.96.64-.8 1.28-1.44 1.68-2.4.68-1.52.72-3.2.8-4.8.08-2 .28-4.04.24-6.08-.08-3.56-1.24-6.92-4.32-8.96-5.92-3.92-13.36-.28-16.16 5.64-3.28 7-.64 15.28 5.48 19.76 2.44 1.88 4.84-2.28 2.36-4.08z" transform="matrix(-1 0 0 1 538 0) translate(37.2 15.2)"></path><path fill="#FFECB7" d="M90.32 83.64c.8 1.28 2.24 1.76 3.68 1.32.64-.2 1.2-.56 1.68-1 .12-.12.28-.24.4-.4.12-.12.08-.12-.08.04.76-.4.16-.52-1.76-.44.96.8 2.48 1 3.4 0 .84-.88 1-2.52 0-3.4-1.16-1-2.64-1.16-4-.36-.44.24-.88.6-1.2 1-.28.36.36-.24-.08.08.08-.04.16-.08.24-.08-.84.2-.24.48 1.8.84-.68-1.08-2.16-1.6-3.28-.88-1 .68-1.52 2.16-.8 3.28z" transform="matrix(-1 0 0 1 538 0) translate(37.2 15.2)"></path><path fill="#FFECB7" d="M91.44 86.8v.36c0 .6.28 1.28.72 1.68.4.4 1.08.72 1.68.72.64-.04 1.28-.24 1.68-.72.44-.48.72-1.04.72-1.68v-.36c0-.6-.28-1.28-.72-1.68-.4-.4-1.08-.72-1.68-.72-.64.04-1.28.24-1.68.72-.44.44-.72 1-.72 1.68z" transform="matrix(-1 0 0 1 538 0) translate(37.2 15.2)"></path><path fill="#FAE3D9" d="M67.68 42.56c10.52-12.52 20.6-25.4 30.28-38.64-.92.36-1.8.72-2.72 1.12.92.28 1.6.76 2.28 1.44-.12-.96-.24-1.92-.36-2.92-9.24 13.2-18.44 26.36-27.68 39.56 1.08-.28 2.2-.56 3.28-.88-.8-.48-1.6-.96-2.4-1.48.28 1.08.56 2.2.88 3.28 4.2-5.48 8.04-11.16 11.52-17.12 1.56-2.68-2.6-5.08-4.16-2.44-3.48 5.92-7.32 11.64-11.52 17.12-.8 1.04-.12 2.68.88 3.28.8.48 1.6.96 2.4 1.48 1.16.72 2.56.2 3.28-.88 9.24-13.2 18.44-26.36 27.68-39.56.6-.88.32-2.2-.36-2.92-1.24-1.28-2.72-2.16-4.4-2.68-1.08-.36-2.08.24-2.72 1.12-9.4 12.88-19.24 25.44-29.52 37.64-2 2.44 1.4 5.88 3.36 3.48zM40.76 178.56v-.36c0-3.08-4.8-3.08-4.8 0v.36c0 3.12 4.8 3.12 4.8 0v-.36c0-3.08-4.8-3.08-4.8 0v.36c0 3.12 4.8 3.12 4.8 0zM2.44 145.08c3.08 0 3.08-4.8 0-4.8s-3.08 4.8 0 4.8zM13.28 147.2c2.32 0 2.32-3.6 0-3.6s-2.32 3.6 0 3.6zM160.28 55.76c2.32 0 2.32-3.6 0-3.6s-2.32 3.6 0 3.6zM182.84 110.16v.68c0 .48.2.96.52 1.28.32.32.84.56 1.28.52.48-.04.96-.16 1.28-.52.32-.36.52-.8.52-1.28v-.68c0-.48-.2-.96-.52-1.28-.32-.32-.84-.56-1.28-.52-.48.04-.96.16-1.28.52-.32.36-.52.8-.52 1.28z" transform="matrix(-1 0 0 1 538 0) translate(37.2 15.2)"></path></g><g fill-rule="nonzero"><path fill="#CCCDD2" d="M205.52 96.8c6.8 1.08 16.32 4.24 13.8 13.12-1.16 4.08-4.36 7-7.52 9.6-3.12 2.52-6.2 5-9.04 7.84-2.72 2.72-5.2 5.68-7.48 8.8-1.8 2.48-4.28 5.56-4 8.88.24 2.96 2.84 3.68 5.2 4.6 3.4 1.32 7 3.64 8.32 7.2 1.76 4.8-1.92 9.04-5.4 11.88-3.12 2.56-6.52 4.76-8.64 8.28-.4.68.64 1.28 1.04.6 3.8-6.4 13.48-8.96 14.56-17.04.44-3.16-1-6.12-3.28-8.24-1.12-1.08-2.44-1.96-3.8-2.72-1.64-.88-3.56-1.24-5.16-2.16-4.48-2.6 1.12-9.24 3.04-11.76 2.76-3.64 5.84-7 9.24-10.04 5.44-4.96 13.96-9.36 14.56-17.64.6-8.4-8.4-11.24-15.04-12.28-.84-.2-1.16.96-.4 1.08zM87.36 95.52c-7.12 8.76-15.16 16.72-24.04 23.68-8.72 6.84-18.2 12.28-27.84 17.68-8.88 5-17.84 10.12-25.44 17.04-3.4 3.08-7.16 6.68-9.08 10.96-1.48 3.32-1.6 7.64 2.2 9.36 2.08.92 4.52.6 6.68.24 3.52-.6 7-1.36 10.48-2.04 3.56-.68 7.12-1.4 10.68-2.08 3.4-.64 9.76-1.24 9.92 3.84.04.76 1.24.76 1.2 0-.16-4.72-5.2-5.92-9.08-5.44-5.92.76-11.76 2.24-17.64 3.36-4.12.8-15.12 4.12-14.32-3.76.52-5.08 5.32-9.48 8.8-12.8 7.36-6.96 16.2-12.12 25-17.08 9.24-5.2 18.44-10.32 26.92-16.72 9.76-7.4 18.6-15.96 26.32-25.44.56-.56-.28-1.4-.76-.8zM23.72 177.68c-3.52 4.24-7.64 9.24-7 15.12.48 4.52 3.72 8.76 8.6 8.44 3.12-.2 5.88-1.92 8.6-3.24 3.4-1.64 6.88-3.12 10.48-4.2 3.56-1.04 7.28-1.72 11-1.8 2.96-.04 6.32.16 8.8 2 3.76 2.72 1.44 6.8-.56 9.84-1.96 2.92-3.68 5.92-5.2 9.08-1.36 2.88-2.56 5.88-3.52 8.92-.72 2.28-1.56 4.96.2 6.96 3.76 4.36 9.48.64 12.64-2.32 4.84-4.52 10.08-8.28 16.12-11.08 6.76-3.12 14.12-4.96 21.52-5.36 3.76-.2 7.56-.08 11.28.52 3.32.52 7.04 1.56 8.6 4.88.32.68 1.36.08 1.04-.6-2.16-4.68-8.08-5.4-12.64-5.84-5.96-.56-12.04-.12-17.88 1.16-5.84 1.28-11.56 3.44-16.76 6.4-2.56 1.44-4.96 3.08-7.28 4.88-2.6 2.04-4.8 4.56-7.44 6.44-2.36 1.68-7.4 2.92-8.8-.76-.68-1.8.2-3.88.76-5.64.6-1.84 1.28-3.64 2.04-5.4 1.32-3.12 2.88-6.12 4.64-9 1.56-2.52 3.88-5.08 4.44-8.08.92-4.88-3.88-7.4-8-8-6.12-.84-12.6.56-18.36 2.64-3.52 1.28-6.84 2.92-10.2 4.56-3.48 1.72-7.8 3.04-10.76-.36-5.52-6.32.28-14.28 4.48-19.36.52-.56-.32-1.4-.84-.8z" transform="matrix(-1 0 0 1 538 0)"></path><path fill="#CCCDD2" d="M46.72 197.92c3.76-1.2 7.08 2.48 7.16 6.04.08 3.76-2.4 7-4.88 9.56-.56.56.32 1.4.84.84 3.04-3.12 6.2-7.56 5-12.2-.96-3.64-4.64-6.6-8.44-5.4-.72.24-.44 1.4.32 1.16zM186.44 94.72c1.84 1.52 4 1.84 6.28 2.32 2.48.52 4.64 1.48 6.36 3.4 3.24 3.64 4.24 9.12 1.84 13.44-.36.68.64 1.28 1.04.6 2.32-4.16 1.84-9.28-.72-13.2-1.2-1.84-2.88-3.44-4.92-4.4-2.88-1.36-6.48-.92-9.04-3-.6-.48-1.44.36-.84.84zM39.76 179.92c2.28 6.12 9.52 4.56 13.96 2.16 2.84-1.52 5.48-3.48 7.8-5.72 2.48-2.44 4.48-5.32 6.92-7.8 2.68-2.72 6.44-5.2 10.48-4.52 3.64.6 5.84 3.84 8.16 6.32 3.04 3.2 9.16 6.48 12.24 1.4.4-.68-.64-1.28-1.04-.6-1.96 3.2-6.12 2.08-8.52.16-2.16-1.76-3.72-4.16-5.84-5.96-4-3.44-9-3.12-13.24-.24-4.68 3.16-7.52 8.4-11.8 12.04-2.52 2.12-5.44 4.08-8.56 5.24-3.32 1.24-7.96 1.16-9.4-2.76-.28-.76-1.44-.44-1.16.28z" transform="matrix(-1 0 0 1 538 0)"></path><path fill="#161616" d="M49.76 142.64c5.12 4.44 9.4 9.72 12.72 15.64.36.68 1.4.08 1.04-.6-3.36-6.04-7.68-11.36-12.92-15.88-.56-.52-1.44.36-.84.84z" transform="matrix(-1 0 0 1 538 0)"></path><path fill="#161616" d="M50.8 141.36c4.32-5.72 10.44-11.56 17.24-14.16 1.08-.4 2.32-.76 3.48-.48 1.44.32 2.28 1.56 3.12 2.68 1.2 1.56 2.36 3.16 3.52 4.76 2.28 3.2 4.44 6.52 6.48 9.88.4.64 1.44.04 1.04-.6-2.56-4.2-5.32-8.32-8.24-12.28-2.2-3-4.2-6.52-8.48-5.52-3.72.88-7.28 3.6-10.2 5.88-3.4 2.68-6.4 5.8-9.04 9.24-.4.6.64 1.2 1.08.6z" transform="matrix(-1 0 0 1 538 0)"></path><path fill="#161616" d="M63.2 158.8c8.16-3.44 15.44-8.48 21.48-14.96.52-.56-.32-1.4-.84-.84-5.88 6.32-13 11.32-20.96 14.64-.72.32-.4 1.48.32 1.16zM55.44 142.16c4.56-4.12 9.64-7.52 15.24-10.12.68-.32.08-1.36-.6-1.04-5.68 2.64-10.84 6.12-15.48 10.32-.6.48.28 1.36.84.84zM58.76 144.16c2.48-1.8 4.96-3.56 7.44-5.36.64-.44.04-1.48-.6-1.04-2.48 1.8-4.96 3.56-7.44 5.36-.64.48-.04 1.52.6 1.04zM60.44 146.92c4.16-2.92 8.32-5.88 12.48-8.8.64-.44.04-1.48-.6-1.04-4.16 2.92-8.32 5.88-12.48 8.8-.64.44-.04 1.48.6 1.04zM63.96 150.2c2.56-2.08 5.24-3.92 8.04-5.64.68-.4.04-1.44-.6-1.04-2.92 1.72-5.68 3.68-8.28 5.8-.6.52.24 1.36.84.88zM65.8 153.48c3.76-3.08 7.84-5.64 12.2-7.76.68-.32.08-1.36-.6-1.04-4.48 2.16-8.6 4.84-12.44 7.96-.6.48.24 1.32.84.84z" transform="matrix(-1 0 0 1 538 0)"></path><path fill="#2C2345" d="M148.04 178.6c1.96-2.48-.36-5.52-2.96-6.24-3.12-.88-6.68.6-8.24 3.4-1.76 3.12-1.04 7.2 1.24 9.84 2.92 3.44 10.52 5.52 9.16 11.2-.2.76.96 1.08 1.16.32 1.56-6.48-6.24-8.48-9.48-12.36-2.28-2.76-2.68-7.4.2-9.92 1.16-1 2.8-1.6 4.32-1.52 1.8.08 5.68 2.04 3.8 4.48-.52.56.32 1.4.8.8z" transform="matrix(-1 0 0 1 538 0)"></path><path fill="#2C2345" d="M148.68 178.36c.32-2.16 1.32-4.08 2.92-5.56.76-.72 1.64-1.28 2.6-1.72.48-.2 1-.4 1.52-.52 1.12-.24 1.36-.24 2.28.56.92.84.96 1.08.92 2.24 0 .44-.08.88-.12 1.28-.12.8-.36 1.56-.64 2.32-.6 1.64-1.52 3.16-2.48 4.6-3.44 5.12-8.36 9.8-8.64 16.32-.04.76 1.16.76 1.2 0 .36-8.76 9.44-13.8 11.52-21.96.4-1.56.72-3.56.04-5.08-.84-1.76-2.68-1.84-4.36-1.44-4.08.96-7.2 4.52-7.84 8.64-.2.76.96 1.12 1.08.32z" transform="matrix(-1 0 0 1 538 0)"></path><path fill="#161616" d="M155.48 117.96c-.72 3.88-.88 7.96 0 11.84.84 3.72 3.52 2.92 6.6 3.12 7 .48 16.28 4.92 20.88-3 .4-.68-.64-1.28-1.04-.6-3.92 6.76-12.16 3.44-18.16 2.6-1.4-.2-2.72-.2-4.12-.16-2.16 0-2.8-1.04-3.12-2.96-.6-3.48-.52-7 .16-10.48.08-.8-1.08-1.12-1.2-.36z" transform="matrix(-1 0 0 1 538 0)"></path><path fill="#161616" d="M155.64 119.88c2.16-1.32 4.04-1.56 6.48-1.96 1.04-.16 1.72-.56 1.88-1.64.44-2.72-.72-5.52 1.44-7.84 2.4-2.6 5.64-.28 6.64 2.36.48 1.24.76 2.68 1.72 3.68 1.24 1.32 2.88.96 4.44 1.4 6.04 1.64 4.24 9.44 2.96 13.64-.24.72.92 1.04 1.16.32 1.36-4.36 2.72-9.8-.92-13.44-.6-.6-1.28-1.08-2.04-1.4-1.16-.48-2.44-.24-3.64-.68-2.32-.84-2.28-4.28-3.68-6.04-2.52-3.12-6.84-2.68-8.56.96-.48 1-.64 2.04-.72 3.12-.08 1.28.52 3.84-.84 4.36-.96.4-2.44.24-3.48.56-1.24.36-2.36.92-3.44 1.56-.64.44-.04 1.48.6 1.04z" transform="matrix(-1 0 0 1 538 0)"></path><path fill="#161616" d="M160.4 118.64c-.6 4.72.2 9.4 2.28 13.68.32.68 1.36.08 1.04-.6-2-4.08-2.72-8.56-2.12-13.08.12-.76-1.08-.76-1.2 0zM121.92 92.04c-5.16-2.4-8.24-7.96-7.96-13.64.32-5.8 4.24-11.08 9.24-13.84 3.12-1.72 6.44-2.24 9.6-.4 2.88 1.64 4.92 4.48 6.08 7.52 2.08 5.52 1.32 11.8-1.96 16.72-.44.64.6 1.24 1.04.6 5.44-8.12 4.2-22.24-5.76-26.44-5-2.12-10.32.72-13.92 4.24-3.52 3.44-5.8 8.36-5.52 13.32.32 5.48 3.52 10.64 8.52 13 .72.28 1.32-.76.64-1.08z" transform="matrix(-1 0 0 1 538 0)"></path><path fill="#161616" d="M121.36 93.48c-1.04 1.12-.76 2.84.52 3.68 2.08 1.36 5.68.12 7.88-.4 2.36-.56 5.92-1.08 7.52-3.16.96-1.28.96-3.04-.28-4.12-.6-.48-1.44.36-.84.84 1.84 1.56-.56 3.36-2 3.92-1.2.44-2.44.8-3.68 1.12-1.16.28-2.32.56-3.48.76-.72.12-1.52.32-2.24.36-1.04.04-4.04-.52-2.52-2.12.52-.6-.32-1.44-.88-.88z" transform="matrix(-1 0 0 1 538 0)"></path><path fill="#161616" d="M123.68 97.76c.16 2.36 2.16 3.88 4.48 4.04 3.2.2 5.6-2.48 7.48-4.68.48-.6-.36-1.44-.84-.84-1.32 1.56-2.8 3.36-4.76 4.04-2 .72-4.96-.08-5.12-2.56-.08-.76-1.28-.76-1.24 0z" transform="matrix(-1 0 0 1 538 0)"></path><path fill="#161616" d="M126.92 102.24c-.32 1.64.68 3.36 2.4 3.64 1.76.28 3.28-1.28 3.32-2.96 0-.76-1.2-.76-1.2 0 0 1-.96 2-2.04 1.76-.92-.2-1.52-1.24-1.32-2.12.16-.76-1-1.08-1.16-.32zM118.72 76.92c3.44 2.2 6.08 5.28 7.76 9 .32.72 1.36.08 1.04-.6-1.76-3.92-4.56-7.12-8.2-9.44-.68-.4-1.28.64-.6 1.04z" transform="matrix(-1 0 0 1 538 0)"></path><path fill="#161616" d="M124.88 74c.76 5.76 1.56 11.52 2.32 17.24.12.76 1.24.44 1.16-.32-.76-5.76-1.56-11.52-2.32-17.24-.12-.76-1.24-.44-1.16.32z" transform="matrix(-1 0 0 1 538 0)"></path><path fill="#161616" d="M126.96 83.8c1.04-3.76 3.44-6.8 6.84-8.72.68-.36.08-1.4-.6-1.04-3.64 2.04-6.28 5.4-7.4 9.44-.2.76.96 1.08 1.16.32z" transform="matrix(-1 0 0 1 538 0)"></path><path fill="#CCCDD2" d="M83.36 186.64c1.6 3.48 3.32 6.92 5.24 10.24.96 1.64 2.24 4.76 4.6 3.76.72-.32.08-1.32-.6-1.04-1.52.64-4.24-5.56-4.76-6.56-1.24-2.28-2.36-4.64-3.44-7-.32-.72-1.36-.12-1.04.6z" transform="matrix(-1 0 0 1 538 0)"></path><path fill="#CCCDD2" d="M84.44 187.36c3.4-2.64 6.72-5.36 10.16-7.92 3-2.28 6.24-4.48 9.92-5.52 3.96-1.16 7.4-.24 10.04 2.96 2.24 2.72 3.6 6.08 5.12 9.2.32.68 1.36.08 1.04-.6-2.92-6-6.36-14.48-14.56-13.16-4.08.64-7.76 2.88-11.08 5.28-3.92 2.88-7.68 5.96-11.52 8.96-.56.44.28 1.28.88.8z" transform="matrix(-1 0 0 1 538 0)"></path><path fill="#CCCDD2" d="M91.56 200.76c10.44-2.28 20.12-7.16 28.24-14.12.6-.52-.28-1.36-.84-.84-7.96 6.84-17.48 11.56-27.72 13.84-.76.16-.44 1.32.32 1.12zM101.28 189.48c-2.12-.52-3.88-2.6-3.36-4.88.48-2.2 3.16-3.8 5.28-2.76 4.28 2.16 1.36 8.32-3.04 6.76-.72-.24-1.04.92-.32 1.16 2.48.88 5.48-.32 6.44-2.84.96-2.48-.6-5.48-3.04-6.36-2.64-.96-5.64.84-6.4 3.48-.88 2.96 1.28 5.88 4.12 6.6.76.2 1.08-.96.32-1.16zM122.6 159.12c-.48-4.28-.52-9.16 4.56-10.32 2.56-.6 4.68-1.36 6.16-3.72 1.52-2.4 1.32-4.64.72-7.28-.44-2.08-.4-3.88 1.28-5.44 1.36-1.24 3.16-1.72 4.92-1.16.72.24 1.04-.92.32-1.16-2.56-.8-5.24.2-6.88 2.32-2.52 3.32.44 6.68-.56 10.24-.6 2.12-2.24 3.92-4.36 4.64-1.72.56-3.56.52-5 1.72-3.04 2.48-2.76 6.68-2.36 10.16.08.76 1.28.76 1.2 0zM112.84 136.72c-1.24-1-.24-3.24 1.36-2.4.64.32 1.04 1.08.68 1.76-.36.68-1.28 1.04-1.96.68-.68-.36-1.28.68-.6 1.04 1.24.6 2.76.16 3.52-.96.8-1.2.28-2.72-.88-3.44-1.16-.72-2.72-.52-3.48.68-.68 1.12-.52 2.68.52 3.52.6.44 1.44-.4.84-.88zM167.56 74.72c-.72-1.16-1.16-2.64-.72-3.96.36-1.12 1.48-1.8 2.64-1.68 1.28.12 1.96 1.32 1.28 2.44-.6 1.04-1.84 1.56-3 1.4-.76-.08-.76 1.12 0 1.2 1.72.2 3.6-.84 4.24-2.48.6-1.48-.16-3.12-1.68-3.6-1.44-.48-3.2.08-4.08 1.32-1.32 1.8-.8 4.24.28 6.04.4.56 1.44-.04 1.04-.68zM103.04 123.76c2.16 3.92 6.56 6.12 11 5.48 5.44-.8 8.36-4.96 10.52-9.6 2.52-5.36 6-9.76 11.56-12.12 5.04-2.12 11.56-1.04 15.72-5 1.6-1.52 2.68-3.64 2.32-5.88-.28-1.72-1.32-3.16-.92-4.96.48-1.96 2-3.4 3.92-3.8.76-.16.44-1.32-.32-1.16-2.32.52-4.2 2.28-4.76 4.64-.32 1.28-.08 2.44.32 3.68.64 2 .88 3.64-.44 5.48-2.32 3.24-6.4 3.68-10.04 4.2-3.24.48-6.28 1.36-9.08 3.04-2.48 1.48-4.68 3.48-6.4 5.8-1.88 2.56-2.92 5.56-4.44 8.32-1.92 3.4-5.08 6-9.12 6.24-3.68.2-7.12-1.76-8.92-5-.24-.64-1.28-.04-.92.64z" transform="matrix(-1 0 0 1 538 0)"></path><path fill="#161616" d="M94.68 58.16c-.68 5-1.36 10-2 15-.12.76 1.04 1.08 1.16.32.68-5 1.36-10 2-15 .12-.76-1.04-1.08-1.16-.32z" transform="matrix(-1 0 0 1 538 0)"></path><path fill="#161616" d="M94.48 73.84l14.16-10.2c.64-.44.04-1.48-.6-1.04L93.88 72.8c-.64.44-.04 1.48.6 1.04zM95.44 58.84c11.84-15.88 23.48-31.88 34.92-48.04.44-.64-.6-1.24-1.04-.6-11.44 16.16-23.08 32.2-34.92 48.04-.44.6.6 1.2 1.04.6zM110.12 61.84C121 47.44 131.56 32.8 141.8 17.92c.44-.64-.6-1.24-1.04-.6-10.24 14.84-20.8 29.52-31.68 43.92-.48.6.56 1.2 1.04.6z" transform="matrix(-1 0 0 1 538 0)"></path><path fill="#161616" d="M130 10.8c1.88-3.52 4.08-7.8 8.24-8.96 4.12-1.16 8.16 1.96 8.24 6.24 0 .76 1.2.76 1.2 0-.04-4.12-3.52-7.84-7.76-7.72-5.56.16-8.68 5.48-10.96 9.84-.36.68.68 1.28 1.04.6z" transform="matrix(-1 0 0 1 538 0)"></path><path fill="#161616" d="M142.04 17.8c2.04-3.04 3.88-6.16 5.52-9.44.36-.68-.68-1.28-1.04-.6-1.64 3.28-3.48 6.4-5.52 9.44-.4.6.64 1.24 1.04.6z" transform="matrix(-1 0 0 1 538 0)"></path><path fill="#161616" d="M129.12 12.76c4.6-3.12 10.56-1.44 12.84 3.6.32.72 1.36.08 1.04-.6-2.56-5.64-9.4-7.52-14.48-4.04-.64.44-.04 1.48.6 1.04z" transform="matrix(-1 0 0 1 538 0)"></path><path fill="#161616" d="M127 16.36c4-2.56 9.88-.88 11.72 3.6.28.72 1.44.4 1.16-.32-2.16-5.12-8.76-7.32-13.48-4.32-.64.44-.04 1.48.6 1.04zM94.72 59.4c2.2 1.32 4.4-1.56 6.68-1.52 1.72.04 3.32.84 4.32 2.28.72 1.04 1.08 2.04 2.24 2.64.68.36 1.28-.68.6-1.04-1.36-.72-1.76-2.48-2.92-3.48-.8-.68-1.76-1.16-2.8-1.4-1.04-.24-2.12-.24-3.12 0-1.28.32-3.16 2.2-4.36 1.48-.68-.4-1.28.64-.64 1.04z" transform="matrix(-1 0 0 1 538 0)"></path><path fill="#161616" d="M101.28 57.24c8.08-10.64 16.2-21.32 24.28-31.96.48-.6-.56-1.2-1.04-.6-8.08 10.64-16.2 21.32-24.28 31.96-.44.6.6 1.2 1.04.6zM113.96 49.24c7.52-11.04 15.48-21.72 23.92-32.08.48-.6-.36-1.44-.84-.84-8.48 10.44-16.56 21.2-24.12 32.32-.4.64.64 1.24 1.04.6zM94.24 70.04c.76-.64 1.88 0 1.68 1-.16.76 1 1.08 1.16.32.2-.96-.16-1.96-1.04-2.48s-1.92-.32-2.68.32c-.56.48.28 1.32.88.84z" transform="matrix(-1 0 0 1 538 0)"></path><path fill="#161616" d="M94.6 69.88c-.2.84-.56 1.6-1.08 2.28.32.2.68.4 1 .6.24-.88.72-1.64 1.4-2.28l-.96-.12c.2.44.04.92-.36 1.16.28.12.6.24.88.36-.16-.56-.04-1.08.32-1.52-.24.04-.48.08-.72.08.32.16.28.6-.04.76.24.04.48.08.72.08-.24-.2-.44-.44-.56-.72-.04-.12-.08-.24-.12-.4 0-.08-.08-.92-.2-.68-.36.68.68 1.28 1.04.6.56-1.04-.88-1.96-1.68-1.12-.84.92-.08 2.44.72 3.12.2.2.48.24.72.08 1.12-.56 1.12-2.24.04-2.84-.2-.12-.56-.12-.72.08-.64.76-.88 1.72-.64 2.68.08.36.56.56.88.36 1-.6 1.28-1.8.8-2.8-.16-.36-.68-.36-.96-.12-.84.76-1.4 1.72-1.68 2.8-.16.52.6 1.08 1 .6.64-.84 1.12-1.76 1.4-2.8.16-.68-1-1-1.2-.24z" transform="matrix(-1 0 0 1 538 0)"></path><path fill="#CCCDD2" d="M92.36 76.16c-.8 4.32-2.6 8.28-5.44 11.64-.48.6.36 1.44.84.84 2.96-3.56 4.92-7.64 5.76-12.2.12-.72-1.04-1.04-1.16-.28zM84 81.16c-4.16 3.08-8.56 5.84-13.12 8.28-.68.36-.08 1.4.6 1.04 4.56-2.44 8.96-5.2 13.12-8.28.64-.48.04-1.52-.6-1.04zM181.64 172.6c-1.08-1.68-2.88-.8-3.84.48-1.04 1.32-1.88 2.88-2.76 4.32-.68 1.12-1.48 2.36-1.6 3.76-.24 2.8 1.88 3.12 4 3.8 2.52.84 2.36 3.8.76 5.44-1.28 1.32-3.16 1.88-4.84 2.44-.72.24-.4 1.4.32 1.16 3.36-1.08 8.36-3.52 6.64-8-.28-.72-.76-1.32-1.4-1.72-.36-.2-.76-.36-1.16-.48-1.16-.36-1.48-.24-2.4-1.24-.76-.44-1-1.04-.64-1.84.16-.56.36-1.08.64-1.56.32-.64.72-1.24 1.12-1.84.4-.6 3.2-5.64 4.12-4.16.4.68 1.44.08 1.04-.56zM112.96 219.68c3.28-.84 6.08 2.4 4.64 5.52-.32.68.72 1.32 1.04.6 1.88-4.04-1.6-8.4-5.96-7.28-.8.2-.48 1.36.28 1.16zM174.24 153.8c-1.52-1.12-1.52-4.04.8-4.12.84-.04 1.72.44 1.68 1.36 0 .76-.68 1.68-1.52 1.56-.76-.12-1.08 1.04-.32 1.16 1.48.24 2.76-.84 3-2.28.28-1.48-.8-2.76-2.24-2.96-1.48-.24-3 .6-3.52 2.04-.52 1.6.2 3.32 1.52 4.28.6.44 1.2-.6.6-1.04zM7.04 148.84c.56-2.24 2.48-3.52 4.28-4.76 1.88-1.32 3.8-2.68 5.72-4 3.8-2.68 7.6-5.32 11.4-8 .64-.44.04-1.48-.6-1.04-4.44 3.12-8.88 6.2-13.32 9.32-3 2.08-7.68 4.28-8.64 8.16-.2.76.96 1.08 1.16.32z" transform="matrix(-1 0 0 1 538 0)"></path></g><g><path fill="#FFF" fill-rule="nonzero" stroke="#161616" stroke-width="1.2" d="M167.4 130.32L21.6 105.36c29.52-11.92 59.04-23.8 88.56-35.72 46.16 10.28 92.32 20.56 138.44 30.84-27.04 9.96-54.12 19.88-81.2 29.84z" transform="matrix(-1 0 0 1 538 0) translate(108 228.8)"></path><path fill="#161616" fill-rule="nonzero" d="M165.4 130.92c.16.48.28 1 .44 1.48.2.64 1.16.52 1.16-.16v-1.16c0-.76-1.2-.76-1.2 0 0 .48-.08.92-.28 1.36h1.16c-.16-.52-.2-1-.08-1.56-.36.04-.72.08-1.08.16.12.12.12.2.04.32.36.04.72.08 1.08.16-.08-.28-.04-.52.12-.76-.36-.12-.76-.2-1.12-.32-.08.64-.16 1.24-.24 1.88-.04.32.32.6.6.6.36 0 .56-.28.6-.6.08-.64.16-1.24.24-1.88.08-.6-.84-.76-1.12-.32-.32.52-.4 1.12-.24 1.72.12.52.84.56 1.08.16.32-.48.32-1.08-.04-1.52-.28-.36-1-.4-1.08.16-.16.72-.12 1.48.08 2.2.2.6.96.52 1.16 0 .2-.56.32-1.12.32-1.68h-1.2v1.16c.4-.04.8-.12 1.16-.16-.16-.48-.28-1-.44-1.48-.16-.84-1.32-.52-1.12.24z" transform="matrix(-1 0 0 1 538 0) translate(108 228.8)"></path><path fill="#161616" fill-rule="nonzero" d="M166.32 133.8c6.44-3.32 13.48-5.08 20.4-7.04 3.4-.96 6.76-2 10-3.36 3.12-1.28 6.12-2.88 9.2-4.32 6.84-3.2 14.24-5.28 21.4-7.64 7.44-2.48 14.84-4.96 22.28-7.4.72-.24.4-1.4-.32-1.16-7.44 2.48-14.84 4.96-22.28 7.4-7.04 2.32-14.28 4.4-21.04 7.48-3.52 1.6-6.96 3.48-10.56 4.88-3.28 1.28-6.64 2.28-10.04 3.24-6.68 1.92-13.44 3.68-19.68 6.88-.64.36-.04 1.4.64 1.04z" transform="matrix(-1 0 0 1 538 0) translate(108 228.8)"></path><path fill="#161616" fill-rule="nonzero" d="M166.88 133.56c27.64-9.56 55.2-19.24 82.76-29.08 2.16-.76 1.24-4.24-.96-3.48-27.52 9.84-55.12 19.52-82.76 29.08-2.16.76-1.24 4.24.96 3.48zM163.76 94.92c5.2.52 9.64 3.68 14.76 4.68.76.16 1.08-1 .32-1.16-5.2-1.04-9.72-4.2-15.08-4.72-.76-.04-.76 1.16 0 1.2z" transform="matrix(-1 0 0 1 538 0) translate(108 228.8)"></path><path fill="#161616" fill-rule="nonzero" d="M178.88 99.04c3.16-1.72 6.12-3.76 8.8-6.16.56-.52-.28-1.36-.84-.84-2.64 2.32-5.48 4.32-8.56 5.96-.68.4-.08 1.44.6 1.04zM165 92.64c2.52-1.8 5.12-3.52 7.8-5.12.68-.4.04-1.44-.6-1.04-2.68 1.6-5.28 3.28-7.8 5.12-.64.48-.04 1.52.6 1.04z" transform="matrix(-1 0 0 1 538 0) translate(108 228.8)"></path><path fill="#161616" fill-rule="nonzero" d="M173 87.72c4.56 1.72 9.12 3.4 13.72 5.12.72.28 1.04-.88.32-1.16-4.56-1.72-9.12-3.4-13.72-5.12-.72-.24-1.04.92-.32 1.16zM160.16 99.48c12.04 3.72 23.92 8 35.56 12.84.72.28 1.04-.88.32-1.16-11.64-4.84-23.52-9.12-35.56-12.84-.76-.24-1.08.92-.32 1.16zM161.32 108.8c7.48 3.6 15.04 7 22.68 10.32.72.32 1.32-.72.6-1.04-7.64-3.28-15.2-6.72-22.68-10.32-.68-.32-1.28.72-.6 1.04zM162.4 119.08c4.08 2.08 8.16 4.2 12.24 6.28.68.36 1.28-.68.6-1.04-4.08-2.08-8.16-4.2-12.24-6.28-.68-.36-1.28.68-.6 1.04z" transform="matrix(-1 0 0 1 538 0) translate(108 228.8)"></path><path fill="#161616" fill-rule="nonzero" d="M164.72 119.44c5.64-4.8 11.56-9.2 17.72-13.28.64-.44.04-1.48-.6-1.04-6.24 4.12-12.24 8.64-17.96 13.48-.6.52.24 1.36.84.84zM163.24 111.24c3.2-2.24 6.4-4.48 9.6-6.76.64-.44.04-1.48-.6-1.04-3.2 2.24-6.4 4.48-9.6 6.76-.6.44 0 1.48.6 1.04z" transform="matrix(-1 0 0 1 538 0) translate(108 228.8)"></path><path fill="#FFF" fill-rule="nonzero" stroke="#161616" stroke-width="1.2" d="M165.24 133.08L14.4 107.4C9.68 71.68 4.92 36 .2.28c54.12 7.28 108.2 14.56 162.32 21.88.92 36.96 1.84 73.92 2.72 110.92z" transform="matrix(-1 0 0 1 538 0) translate(108 228.8)"></path><path fill="#161616" fill-rule="nonzero" d="M75.64 71.28c-4.36-1.36-6.72-5.04-7.08-9.48-.36-4.52.52-8.88 4.72-11.24 3.72-2.08 8.16-1.48 11.48 1.04 3.32 2.52 6.28 7.68 3.6 11.64-.44.64.6 1.24 1.04.6 2.88-4.24.16-9.84-3.36-12.76-3.64-3-8.56-3.92-12.84-1.8-4.96 2.44-6.24 7.4-5.84 12.56.4 5 3.04 9.12 7.96 10.64.72.2 1.04-.96.32-1.2z" transform="matrix(-1 0 0 1 538 0) translate(108 228.8)"></path><path fill="#161616" fill-rule="nonzero" d="M76.76 71.72c-1.84-3.04-1.24-7.28 1.72-9.4s7.2-1.24 9.44 1.48c.48.6 1.32-.24.84-.84-2.64-3.16-7.6-4.04-11.04-1.6-3.44 2.48-4.16 7.44-2 10.96.4.64 1.44.04 1.04-.6z" transform="matrix(-1 0 0 1 538 0) translate(108 228.8)"></path><path fill="#161616" fill-rule="nonzero" d="M80.88 73.4c-1.88-2-1.6-5.72.92-7.16 2.48-1.44 5.84.2 6.64 2.84.24.72 1.4.44 1.16-.32-1.04-3.36-5.24-5.36-8.4-3.52-3.16 1.84-3.56 6.48-1.16 9.04.52.52 1.36-.32.84-.88z" transform="matrix(-1 0 0 1 538 0) translate(108 228.8)"></path><path fill="#161616" fill-rule="nonzero" d="M83.96 76.2c1.56.56 3.36-.36 3.96-1.84.64-1.48-.2-3.08-1.6-3.72-1.4-.64-3.08-.28-3.84 1.08-.72 1.32-.48 3.12.72 4.08.6.48 1.44-.36.84-.84-1.6-1.24-.48-4.16 1.64-3.28.92.36 1.56 1.32 1.12 2.32-.44.96-1.56 1.44-2.52 1.08-.72-.28-1.04.88-.32 1.12z" transform="matrix(-1 0 0 1 538 0) translate(108 228.8)"></path><path stroke="#161616" stroke-width="1.2" d="M162.52 22.12L166.04 132.32M162.76 22.04L166 130.76" transform="matrix(-1 0 0 1 538 0) translate(108 228.8)"></path><path fill="#3D3D3D" fill-rule="nonzero" d="M93.52 14.68c2.6 1.36 24.92 13.52 26.48 35.12.88 11.92-4.96 20.96-8.64 26.48-19.84 29.84-59.08 35.12-69.72 36.24 15.48 10.28 69.56 44.16 128.68 42.16 13.16-.44 33.56-1.36 55.68-13.52 16.6-9.12 27.36-20.84 33.52-28.64-3.8-2.36-7.56-4.68-11.36-7.04-27.92 9.56-55.88 19.12-83.8 28.64l-4.32-110.84c-22.2-2.8-44.36-5.68-66.52-8.6z" opacity=".37" transform="matrix(-1 0 0 1 538 0) translate(108 228.8)"></path><path fill="#3D3D3D" fill-rule="nonzero" d="M61.72 115.12c5.2 3.44 13.24 8.36 23.64 13.08 12.96 5.92 51.32 23.44 92.88 13.72 30.2-7.08 53.56-26.48 52.04-29.68-.96-2-12.68.08-64.88 20.84-.84-16.92-1.68-33.88-2.48-50.8-1.44 14.24-2.92 28.48-4.36 42.68-32.28-3.24-64.56-6.56-96.84-9.84z" opacity=".5" transform="matrix(-1 0 0 1 538 0) translate(108 228.8)"></path></g><path fill="#1C2A82" fill-rule="nonzero" d="M180.48 298.32c-2.92-3.2-3.88-7.68-2.44-11.6 1.48-3.96 5.4-7.36 10.08-7.2 4.12.16 7.44 3.04 8.64 5.76.88 2.08.68 4 .68 4-.12 1.08-.48 1.92-.76 2.44-2.04-2.36-5.16-3.44-8.08-2.76-3.6.84-5.16 3.92-5.32 4.2-1.64 3.36-.2 6.48 0 6.84-.96-.6-1.88-1.16-2.8-1.68z" transform="matrix(-1 0 0 1 538 0)"></path><g fill-rule="nonzero"><path fill="#FFF" stroke="#161616" stroke-width="1.2" d="M65.28 58.88c-2.16 1.6-4.48 3.76-6.6 6.6-7.88 10.6-6.8 23.04-6.24 27.08-7-1.44-18.76-2.84-32.64.36-8.28 1.92-14.92 4.92-19.8 7.64.76.48 1.8 1.04 3.12 1.4 7.48 2.04 15.36-4.24 15.6-3.8.24.4-8.8 4.64-8.32 8.32.32 2.48 4.76 3.8 9.36 5.2 3.88 1.16 7.56 2.28 12.48 1.72 6.76-.76 11.44-4.16 13.52-5.92 2 1 4.96 2.32 8.68 3.48 6.84 2.08 16.28 4.96 22.56 1.04 4.08-2.56 5.32-8.56 7.64-20.48 2.96-15.28 4.44-22.92.36-27.76-5.4-6.44-16.24-5.36-19.72-4.88z" transform="matrix(-1 0 0 1 538 0) translate(317.6 188.8)"></path><path fill="#161616" d="M51.08 92.96c4.84 1.8 8.84 5.08 11.6 9.44.4.64 1.44.04 1.04-.6-2.92-4.64-7.2-8.08-12.32-10-.72-.24-1.04.92-.32 1.16zM25.36 100.88c-4.76.8-8.6 4-10.32 8.48-.28.72.88 1.04 1.16.32 1.56-4.08 5.16-6.92 9.48-7.64.76-.12.44-1.28-.32-1.16z" transform="matrix(-1 0 0 1 538 0) translate(317.6 188.8)"></path><path fill="#161616" d="M15.6 110.12c2.48 2.36 5.92 3.16 9.16 2.12.72-.24.4-1.4-.32-1.16-2.84.92-5.84.28-8-1.8-.56-.56-1.4.28-.84.84z" transform="matrix(-1 0 0 1 538 0) translate(317.6 188.8)"></path><path fill="#161616" d="M30.92 104.84c-1.72 1.04-3.32 2.24-4.84 3.52-1 .88-2.12 1.92-1.88 3.36.6 3.8 5.16 2.96 7.64 2 .72-.28.4-1.44-.32-1.16-1.08.4-2.28.92-3.44.88-1.88-.08-3.56-1.88-1.96-3.52 1.52-1.6 3.52-2.88 5.4-4.08.68-.36.08-1.4-.6-1z" transform="matrix(-1 0 0 1 538 0) translate(317.6 188.8)"></path><path fill="#4C5BBB" d="M63.28 1.8c1.64 1.28 3.76 3.04 6 5.32.64.64 2.28 2.32 3.92 4.4 2.56 3.2 4.2 6.24 6 9.96 2.32 4.76 4.64 9.52 6.96 16.64 1.96 6 4.96 15.44 5.32 28 .16 4.96-.16 9.12-.48 12.04-1.64-1.88-3.28-3.12-4.64-3.92-7.64-4.68-16.92-3-25.68-1.4-3.28.6-6 1.32-7.88 1.84.48-4.4.92-8.8 1.4-13.2.4-3.68.76-7.4 1.16-11.12-.76-1.32-1.8-3.2-2.76-5.56-1.88-4.52-5.64-13.4-3.48-23.36C51.68 10 60.68 3.52 63.28 1.8z" transform="matrix(-1 0 0 1 538 0) translate(317.6 188.8)"></path><path fill="#161616" d="M64.68 4c4 2.08 6.68 5.68 9 9.4 2.4 3.84 4.56 7.8 6.48 11.88 3.92 8.32 6.8 17.12 8.68 26.12.16.76 1.32.44 1.16-.32-1.92-9.36-4.96-18.44-9.12-27.08-2.04-4.24-4.28-8.36-6.84-12.32-2.28-3.52-4.96-6.8-8.72-8.76-.72-.32-1.32.72-.64 1.08zM52.2 44.68c1.84 3.76 3.76 7.44 5.76 11.12.36.68 1.4.08 1.04-.6-2-3.68-3.92-7.36-5.76-11.12-.36-.72-1.4-.12-1.04.6z" transform="matrix(-1 0 0 1 538 0) translate(317.6 188.8)"></path><path fill="#161616" d="M55.04 51.56c-1 7.76-2 15.52-2.96 23.28-.04.4.44.68.76.56 6.8-2.16 13.88-3.2 21-2.96 5.64.2 13.12.72 16.28 6.24.4.68 1.4.08 1.04-.6-3-5.28-9.56-6.36-15.08-6.72-7.96-.56-15.96.48-23.52 2.88.24.2.52.4.76.56 1-7.76 2-15.52 2.96-23.28.08-.72-1.12-.72-1.24.04z" transform="matrix(-1 0 0 1 538 0) translate(317.6 188.8)"></path><path fill="#161616" d="M88.76 50.8c1.4 8.8 3.68 18.12 1.32 26.96-.2.76.96 1.08 1.16.32 2.4-9.04.12-18.56-1.32-27.6-.12-.76-1.28-.44-1.16.32z" transform="matrix(-1 0 0 1 538 0) translate(317.6 188.8)"></path><path fill="#3D3D3D" d="M60.24.32c3.64 6.8 7.28 14.92 10.36 24.24 6.04 18.4 7.64 34.92 7.76 47.28l-12.24.72c1.32 9.48 2.68 19 4 28.48-2.56-1.48-6.48-3.36-11.52-4.48-1.64-.36-7.68-1.56-14.12-.48-13.52 2.28-21.68 13.36-23.52 16 1.84.76 4.2 1.48 7.04 1.64 8.72.52 15.08-4.52 16.96-6.12 5.96 3 11.16 4.44 14.84 5.16 6.44 1.32 13.96 2.84 18.12-1.16.32-.32 1.04-1.08 2.6-4.96 2.44-6.16 3.72-11.92 5.4-22.36.36-2.32.88-5.44 1.4-9.16l3.04 3.04c.48-1.8 1.08-4.48 1.4-7.76.84-8.52-.8-15.24-2.36-20.72-6.28-22.16-10.04-35.52-22.6-45.2-2.6-1.92-5-3.32-6.56-4.16z" opacity=".32" transform="matrix(-1 0 0 1 538 0) translate(317.6 188.8)"></path><path fill="#3D3D3D" d="M81.4 27.72c2.68 13.04 3.04 24.12 2.84 32.12-.2 7.44-.96 12.88-1.76 18.36-2.36 16.52-3.56 24.76-8.12 28.6-8.64 7.28-24.04 1.76-27.72.36 3.48 2.32 16 10.2 28.24 5.84 1.28-.48 2.68-1.08 4.04-1.96 1.44-2.44 3.36-6.2 4.6-11.12.72-2.92.92-5.04 1.2-7.52.44-4 1.2-9.84 2.48-17.16 1.16 1 2.36 2 3.52 3 .4-2.04.92-5.16 1.04-9 .36-9.28-1.68-16.32-4.04-24.36-1.28-4.4-3.28-10.32-6.32-17.16z" opacity=".29" transform="matrix(-1 0 0 1 538 0) translate(317.6 188.8)"></path></g><g fill-rule="nonzero"><path fill="#FFF" d="M15.44 39.92c.4 4.28 1.12 10.28 2.72 17.36 1.04 4.6 1.68 7.52 3.04 11.16 2.04 5.48 5.92 15.96 16.04 22.8 2.44 1.68 6.48 3.92 12.16 5.24.92.08 1.84.2 2.76.28.32 1.68.72 4.16 1.12 7.16.96 7.72.48 10.08 2.48 12.16 2.44 2.52 6.32 2.28 7.16 2.2 6.68-.44 10.04-7.08 10.2-7.44-1.08-1.96-2.16-4.36-3.04-7.16-1.92-6.2-1.96-11.72-1.64-15.48 3.08-4.44 6.48-7.84 9.92-10.48 1.32-1 2.44-2.36 4.4-3.04 2.8-.96 4.24 0 6.32-.64 3.44-1.08 4.92-5.52 5.56-7.36 2.44-7.28-.56-14.48-2.48-18.76-1.72-3.92-6.2-13.64-17.12-21.24-11.24-7.84-33.72-16.56-48.6-5.24-2.56 1.96-8.4 7.2-11 18.48z" transform="matrix(-1 0 0 1 538 0) translate(273.6 71.6)"></path><path fill="#2C2345" d="M17.12 56.4c-2.56-.44-9.04-1.96-13.24-7.52-6.4-8.44-2.96-20.24.6-26.48 5.6-9.8 15.8-13.2 28.6-17.48C40.68 2.4 47.92 0 57.76.4c5.44.24 23.88 1.04 34.92 14.76 6.56 8.12 7.28 16.84 8.72 34.04.68 7.88.16 12.16-1.2 16.24-1 2.96-4.24 12.44-13.56 16.24-4.88 2-9.4 1.6-11.88 1.2 2.24-3.32 4.48-6.6 6.76-9.92 1.28.08 5.84.16 9.32-3 4.76-4.36 5.6-13.04 2.12-15.36-2.56-1.72-7.64-.04-12.04 3.92-.4-2.52-1.04-5.28-2.12-8.12-5.04-13.56-16-21-21.36-24.08C55.32 29.04 48.6 37 36.68 40.16c-9.44 2.48-17.28.72-20.76-.32l1.2 16.56z" transform="matrix(-1 0 0 1 538 0) translate(273.6 71.6)"></path><path fill="#161616" d="M15.12 40.96c1.64 12.36 3.36 25.2 9.4 36.32C29.48 86.4 37.48 94.2 47.76 96.8c.76.2 1.08-.96.32-1.16-10.16-2.6-18-10.44-22.8-19.52-5.72-10.8-7.36-23.2-8.96-35.16-.12-.76-1.32-.76-1.2 0z" transform="matrix(-1 0 0 1 538 0) translate(273.6 71.6)"></path><path fill="#161616" d="M47.76 96.96c7.24 0 14.84-3.88 20.52-8.04 5.72-4.2 10.4-9.6 13.76-15.84.36-.68-.68-1.28-1.04-.6-3.24 6.08-7.76 11.36-13.32 15.4-5.56 4.08-12.92 7.88-19.92 7.88-.8 0-.8 1.2 0 1.2z" transform="matrix(-1 0 0 1 538 0) translate(273.6 71.6)"></path><path fill="#161616" d="M68.24 87.96c-.8 8.08.76 16.16 4.44 23.4.36.68 1.4.08 1.04-.6-3.6-7.08-5.04-14.92-4.28-22.8.08-.76-1.12-.76-1.2 0z" transform="matrix(-1 0 0 1 538 0) translate(273.6 71.6)"></path><path fill="#161616" d="M50.84 96.76c1.32 4.56 2.4 9.2 3.2 13.88.52 3.12.72 6.64 4.2 7.8 5.2 1.76 12.88-1.36 14.88-6.52.28-.72-.88-1.04-1.16-.32-1.12 2.92-3.92 4.52-6.8 5.36-2.4.68-6.04 1.4-8.08-.56-1.2-1.16-1.36-3-1.6-4.56-.28-1.64-.56-3.28-.88-4.92-.72-3.52-1.56-7.04-2.56-10.48-.24-.72-1.4-.4-1.2.32z" transform="matrix(-1 0 0 1 538 0) translate(273.6 71.6)"></path><path fill="#161616" d="M52.56 101.72c7.12-.92 11.8-6.36 15.24-12.2.4-.68-.64-1.28-1.04-.6-3.16 5.44-7.56 10.76-14.2 11.6-.76.12-.76 1.32 0 1.2z" transform="matrix(-1 0 0 1 538 0) translate(273.6 71.6)"></path><path fill="#161616" d="M52.28 97.64c5.56-.64 10.56-3.24 14.28-7.44.52-.56-.32-1.44-.84-.84-3.48 3.96-8.2 6.48-13.44 7.08-.72.08-.76 1.28 0 1.2z" transform="matrix(-1 0 0 1 538 0) translate(273.6 71.6)"></path><path fill="#161616" d="M52.48 96.76c4.48-.64 8.52-2.48 11.96-5.4.6-.52-.28-1.36-.84-.84-3.28 2.8-7.16 4.52-11.44 5.12-.76.08-.44 1.24.32 1.12z" transform="matrix(-1 0 0 1 538 0) translate(273.6 71.6)"></path><path fill="#161616" d="M52.24 97.76c.2.96.16 2.88 1.36 3.2 1.16.32 2.92-1.04 3.84-1.6 3.16-1.92 5.8-4.52 7.88-7.56.44-.64-.6-1.24-1.04-.6-1.48 2.2-3.28 4.16-5.4 5.76-1 .76-2.04 1.4-3.12 2-.44.24-1.44.92-1.88.64-.28-.16-.4-1.88-.44-2.16-.2-.76-1.36-.44-1.2.32z" transform="matrix(-1 0 0 1 538 0) translate(273.6 71.6)"></path><path fill="#161616" d="M52.8 98.88c3.44-1.4 6.68-3.16 9.72-5.28.64-.44.04-1.48-.6-1.04-2.96 2.08-6.08 3.8-9.44 5.16-.72.28-.4 1.44.32 1.16z" transform="matrix(-1 0 0 1 538 0) translate(273.6 71.6)"></path><path fill="#161616" d="M53.4 100.08c3.84-1.36 7.2-3.48 10-6.44.52-.56-.32-1.4-.84-.84-2.68 2.76-5.84 4.84-9.48 6.12-.72.28-.4 1.44.32 1.16z" transform="matrix(-1 0 0 1 538 0) translate(273.6 71.6)"></path><path fill="#161616" d="M54.04 99.44c2.84-1.24 5.44-2.92 7.68-5.08.56-.52-.28-1.36-.84-.84-2.2 2.08-4.68 3.68-7.44 4.88-.72.32-.12 1.36.6 1.04zM21.36 71.36c-6.52-2.32-8.68-10.84-8.04-17 .68-6.76 6.76-14.12 14.2-10.96 3.56 1.52 4.88 5.44 5.84 8.92 1 3.68 1.44 7.76.48 11.52-.84 3.32-2.88 6.48-6.08 7.92-3.2 1.44-7 .64-9.16-2.12-.48-.6-1.32.24-.84.84 3.64 4.68 10.48 3.76 14.16-.36 4.68-5.24 4.2-13.2 2.2-19.48-.92-2.92-2.12-5.96-4.8-7.64-2.32-1.48-5.28-1.84-7.88-1.16-6.08 1.64-9.24 8.08-9.36 13.96-.12 6.44 2.4 14.4 9.04 16.72.64.24.96-.92.24-1.16z" transform="matrix(-1 0 0 1 538 0) translate(273.6 71.6)"></path><path fill="#161616" d="M35.2 59.4c3.92-2.36 8.68-2.6 12.76-.56.68.36 1.28-.68.6-1.04-4.48-2.24-9.68-2.04-14 .56-.6.4 0 1.44.64 1.04z" transform="matrix(-1 0 0 1 538 0) translate(273.6 71.6)"></path><path fill="#161616" d="M54.32 67.92c-4.52-4.36-6.4-11.12-4.64-17.2 1.84-6.32 8.16-11.76 14.96-9.52 7.52 2.48 7.92 13.24 5.96 19.56-1.16 3.72-3.48 7.44-7.32 8.8-3.84 1.36-7.16-.68-10.24-2.84-.64-.44-1.24.6-.6 1.04 2.52 1.8 5.24 3.6 8.44 3.48 3.04-.12 5.8-1.8 7.68-4.08 4.24-5.12 5.08-12.92 3.32-19.16-1.6-5.68-6.32-9.36-12.36-8.36-5.76.92-10 6.12-11.28 11.56-1.48 6.28.52 13.08 5.16 17.56.64.56 1.48-.32.92-.84zM25 54.76c-.4 2.52.04 4.96 1.4 7.12.28.44.92.36 1.08-.16.96-2.76-.4-5.48-1.76-7.84-.28-.52-1.12-.28-1.12.32.04 2.12.48 4.2 1.28 6.16.28.72 1.44.4 1.16-.32-.76-1.88-1.2-3.8-1.24-5.84-.36.12-.76.2-1.12.32 1.24 2.12 2.52 4.44 1.64 6.92.36-.04.72-.08 1.08-.16-1.2-1.88-1.64-4-1.28-6.2.16-.76-1-1.08-1.12-.32z" transform="matrix(-1 0 0 1 538 0) translate(273.6 71.6)"></path><path fill="#161616" d="M60.4 53.64c0-.52-.04-.64-.28-1.08-.28-.52-1.12-.28-1.12.32.04 2.48.24 5.16 2.16 6.92.4.36.96.08 1.04-.44.32-2.96-.56-5.72-2.4-8.04-.4-.48-1.12.04-1 .6.48 1.96 1.08 3.88 1.8 5.72.28.72 1.44.4 1.16-.32-.76-1.88-1.36-3.76-1.8-5.72-.32.2-.68.4-1 .6 1.64 2.08 2.32 4.56 2.04 7.2.36-.16.68-.28 1.04-.44-1.72-1.56-1.8-3.92-1.84-6.08-.36.12-.76.2-1.12.32l.12.48c0 .72 1.2.72 1.2-.04zM39.2 61.52c-.8 2.4-1.48 4.84-1.92 7.32-.24 1.32-1.08 3.8-.48 5.12 1.2 2.68 6.52 1.04 8.36.16.68-.32.08-1.36-.6-1.04-1.48.72-3.08 1.08-4.72.96-.96-.08-1.72-.24-1.92-1.32-.12-.6.28-2.16.4-2.84.48-2.76 1.2-5.44 2.08-8.08.2-.68-.96-1-1.2-.28zM45.24 84.6c3-.4 5.6-2.32 6.92-5.08.32-.68-.72-1.32-1.04-.6-1.2 2.52-3.44 4.16-6.2 4.52-.76.12-.4 1.28.32 1.16zM22.48 51.32c.76-.92 2.16-1.08 3.12-.28.6.52 1.44-.36.84-.84-1.4-1.2-3.56-1.12-4.8.28-.52.56.32 1.4.84.84zM56.8 49.08c1.24-1.08 3.12-1.08 4.36-.04.6.48 1.44-.36.84-.84-1.76-1.52-4.32-1.48-6.08.04-.56.52.32 1.36.88.84zM72.56 54.6c4.32-1.52 8.76-2.44 13.36-2.68.76-.04.76-1.24 0-1.2-4.68.24-9.24 1.16-13.68 2.72-.72.28-.44 1.44.32 1.16z" transform="matrix(-1 0 0 1 538 0) translate(273.6 71.6)"></path><path fill="#3D3D3D" d="M78.52 4.76c2.4 3.08 11.64 15.72 9.92 33.08-.96 9.68-4.96 16.8-7.48 20.56 1.44-1.12 2.68-1.88 3.6-2.4 2.44-1.36 4-2.2 6-2.08.6.04 2.04.16 3.08 1 3.04 2.56 2 11.64-3.4 15.88-2.96 2.32-6.44 2.56-8.2 2.52-2.28 3.24-4.6 6.48-6.88 9.76 1.52.24 3.84.44 6.52.04 1.16-.16 5.8-1 10.2-4.52 4.32-3.48 6.08-7.72 7.24-10.6 3.2-8 2.56-15.04 1.44-27.72-.48-5.64-.76-8.52-1.88-12.32-1.2-4.12-3.08-10.2-8.44-15.64-3.84-4-8.16-6.24-11.72-7.56z" opacity=".4" transform="matrix(-1 0 0 1 538 0) translate(273.6 71.6)"></path><path fill="#3D3D3D" d="M39.88 38.96c4-3.56 8.48-8.12 12.8-13.8 2.68-3.52 4.92-6.92 6.76-10.08-.68 3.6-1.36 7.2-2 10.8-1.56 2.24-4.16 5.44-8.2 8.36-3.56 2.52-6.92 3.92-9.36 4.72z" opacity=".48" transform="matrix(-1 0 0 1 538 0) translate(273.6 71.6)"></path><path fill="#3D3D3D" d="M68.32 34.4c3.04 10.12 3.28 18.6 3 24.2-.2 4.16-1.32 25.96-12.8 33.48-1.12.72-3.96 2.4-3.84 2.64.16.28 5.48-2.08 8.4-3.68 4.6-2.48 11.68-7.48 18.24-18.04 1.08.12 6.36.48 10.16-3.16 4.6-4.36 5.4-12.92 1.76-15.44-2.6-1.8-7.56-.28-11.92 3.32-.44-1.84-1-3.76-1.76-5.8-3-7.92-7.52-13.68-11.24-17.52z" opacity=".27" transform="matrix(-1 0 0 1 538 0) translate(273.6 71.6)"></path><path fill="#3D3D3D" d="M58.68 94.4c1.04 3.2 2.08 6.4 3.12 9.64 1.44 4.4 2.84 8.84 4.24 13.24.8-.16 2.76-.72 4.48-2.48 1.72-1.76 2.28-3.68 2.48-4.48-1.56-3.08-3.4-7.76-4.04-13.68-.32-3.08-.24-5.8 0-8.08-3.4 1.96-6.84 3.92-10.28 5.84z" opacity=".36" transform="matrix(-1 0 0 1 538 0) translate(273.6 71.6)"></path><path fill="#3D3D3D" d="M38.72 62.92c-2 4.28-4 8.52-6 12.8 3.28-.08 6.52-.12 9.8-.2-1.92-.6-3.88-1.2-5.8-1.8.64-3.6 1.32-7.2 2-10.8z" opacity=".43" transform="matrix(-1 0 0 1 538 0) translate(273.6 71.6)"></path></g></g></svg>